<svg width="75" height="80" viewBox="0 0 75 80" fill="none" xmlns="http://www.w3.org/2000/svg">
<circle cx="37.5" cy="28" r="28" fill="#618484"/>
<path d="M33.5 34H41.5V32H33.5V34ZM33.5 30H41.5V28H33.5V30ZM31.5 38C30.95 38 30.479 37.804 30.087 37.412C29.695 37.02 29.4993 36.5493 29.5 36V20C29.5 19.45 29.696 18.979 30.088 18.587C30.48 18.195 30.9507 17.9993 31.5 18H39.5L45.5 24V36C45.5 36.55 45.304 37.021 44.912 37.413C44.52 37.805 44.0493 38.0007 43.5 38H31.5ZM38.5 25V20H31.5V36H43.5V25H38.5Z" fill="#F3F3EE"/>
<path d="M0.98 75.5V65.42H4.039C4.14633 65.42 4.32833 65.4223 4.585 65.427C4.84633 65.4317 5.096 65.4503 5.334 65.483C6.09933 65.5903 6.73867 65.875 7.252 66.337C7.76533 66.799 8.15033 67.387 8.407 68.101C8.66367 68.815 8.792 69.6013 8.792 70.46C8.792 71.3187 8.66367 72.105 8.407 72.819C8.15033 73.533 7.76533 74.121 7.252 74.583C6.73867 75.045 6.09933 75.3297 5.334 75.437C5.10067 75.465 4.851 75.4837 4.585 75.493C4.319 75.4977 4.137 75.5 4.039 75.5H0.98ZM2.044 74.513H4.039C4.23033 74.513 4.43567 74.5083 4.655 74.499C4.879 74.485 5.07033 74.4617 5.229 74.429C5.817 74.3263 6.29067 74.0883 6.65 73.715C7.014 73.3417 7.28 72.875 7.448 72.315C7.616 71.7503 7.7 71.132 7.7 70.46C7.7 69.7833 7.616 69.1627 7.448 68.598C7.28 68.0333 7.014 67.5667 6.65 67.198C6.286 66.8293 5.81233 66.5937 5.229 66.491C5.07033 66.4583 4.87667 66.4373 4.648 66.428C4.424 66.414 4.221 66.407 4.039 66.407H2.044V74.513ZM13.5853 75.71C12.8479 75.71 12.2086 75.5467 11.6673 75.22C11.1306 74.8933 10.7129 74.4337 10.4143 73.841C10.1156 73.2483 9.96625 72.553 9.96625 71.755C9.96625 70.929 10.1133 70.215 10.4073 69.613C10.7013 69.011 11.1143 68.5467 11.6463 68.22C12.1829 67.8933 12.8153 67.73 13.5433 67.73C14.2899 67.73 14.9269 67.9027 15.4543 68.248C15.9816 68.5887 16.3806 69.0787 16.6513 69.718C16.9219 70.3573 17.0456 71.1203 17.0223 72.007H15.9723V71.643C15.9536 70.663 15.7413 69.9233 15.3353 69.424C14.9339 68.9247 14.3459 68.675 13.5713 68.675C12.7593 68.675 12.1363 68.9387 11.7023 69.466C11.2729 69.9933 11.0583 70.7447 11.0583 71.72C11.0583 72.672 11.2729 73.4117 11.7023 73.939C12.1363 74.4617 12.7499 74.723 13.5433 74.723C14.0846 74.723 14.5559 74.5993 14.9573 74.352C15.3633 74.1 15.6829 73.7383 15.9163 73.267L16.8753 73.638C16.5766 74.296 16.1356 74.807 15.5523 75.171C14.9736 75.5303 14.3179 75.71 13.5853 75.71ZM10.6943 72.007V71.146H16.4693V72.007H10.6943ZM21.3967 75.703C20.51 75.703 19.7797 75.5117 19.2057 75.129C18.6364 74.7463 18.2864 74.2143 18.1557 73.533L19.2057 73.358C19.3177 73.7873 19.572 74.1303 19.9687 74.387C20.37 74.639 20.8647 74.765 21.4527 74.765C22.0267 74.765 22.4794 74.646 22.8107 74.408C23.142 74.1653 23.3077 73.8363 23.3077 73.421C23.3077 73.1877 23.254 72.9987 23.1467 72.854C23.044 72.7047 22.8317 72.567 22.5097 72.441C22.1877 72.315 21.707 72.1657 21.0677 71.993C20.3817 71.8063 19.845 71.6197 19.4577 71.433C19.0704 71.2463 18.795 71.0317 18.6317 70.789C18.4684 70.5417 18.3867 70.2407 18.3867 69.886C18.3867 69.4567 18.508 69.081 18.7507 68.759C18.9934 68.4323 19.3294 68.1803 19.7587 68.003C20.188 67.821 20.6874 67.73 21.2567 67.73C21.826 67.73 22.3347 67.8233 22.7827 68.01C23.2354 68.192 23.5994 68.4487 23.8747 68.78C24.15 69.1113 24.3134 69.4963 24.3647 69.935L23.3147 70.124C23.2447 69.6807 23.023 69.3307 22.6497 69.074C22.281 68.8127 21.812 68.6773 21.2427 68.668C20.706 68.654 20.2697 68.7567 19.9337 68.976C19.5977 69.1907 19.4297 69.4777 19.4297 69.837C19.4297 70.0377 19.4904 70.2103 19.6117 70.355C19.733 70.495 19.9524 70.628 20.2697 70.754C20.5917 70.88 21.049 71.0177 21.6417 71.167C22.337 71.3443 22.883 71.531 23.2797 71.727C23.6764 71.923 23.9587 72.154 24.1267 72.42C24.2947 72.686 24.3787 73.015 24.3787 73.407C24.3787 74.121 24.1127 74.6833 23.5807 75.094C23.0534 75.5 22.3254 75.703 21.3967 75.703ZM29.0672 75.71C28.3065 75.71 27.6625 75.5397 27.1352 75.199C26.6078 74.8583 26.2065 74.3893 25.9312 73.792C25.6605 73.19 25.5205 72.4993 25.5112 71.72C25.5205 70.9267 25.6652 70.2313 25.9452 69.634C26.2252 69.032 26.6288 68.5653 27.1562 68.234C27.6835 67.898 28.3228 67.73 29.0742 67.73C29.8395 67.73 30.5045 67.9167 31.0692 68.29C31.6385 68.6633 32.0282 69.1743 32.2382 69.823L31.2302 70.145C31.0528 69.6923 30.7705 69.3423 30.3832 69.095C30.0005 68.843 29.5618 68.717 29.0672 68.717C28.5118 68.717 28.0522 68.8453 27.6882 69.102C27.3242 69.354 27.0535 69.7063 26.8762 70.159C26.6988 70.6117 26.6078 71.132 26.6032 71.72C26.6125 72.6253 26.8225 73.3533 27.2332 73.904C27.6438 74.45 28.2552 74.723 29.0672 74.723C29.5805 74.723 30.0168 74.6063 30.3762 74.373C30.7402 74.135 31.0155 73.7897 31.2022 73.337L32.2382 73.645C31.9582 74.317 31.5475 74.8303 31.0062 75.185C30.4648 75.535 29.8185 75.71 29.0672 75.71ZM33.6831 75.5V67.94H34.6071V69.76L34.4251 69.522C34.5091 69.298 34.6188 69.0927 34.7541 68.906C34.8895 68.7147 35.0365 68.5583 35.1951 68.437C35.3911 68.2643 35.6198 68.1337 35.8811 68.045C36.1425 67.9517 36.4061 67.898 36.6721 67.884C36.9381 67.8653 37.1808 67.884 37.4001 67.94V68.906C37.1248 68.836 36.8238 68.8197 36.4971 68.857C36.1705 68.8943 35.8695 69.025 35.5941 69.249C35.3421 69.445 35.1531 69.6807 35.0271 69.956C34.9011 70.2267 34.8171 70.516 34.7751 70.824C34.7331 71.1273 34.7121 71.4283 34.7121 71.727V75.5H33.6831ZM38.868 66.505V65.35H39.897V66.505H38.868ZM38.868 75.5V67.94H39.897V75.5H38.868ZM45.3906 75.71C44.6953 75.71 44.1073 75.535 43.6266 75.185C43.146 74.8303 42.782 74.352 42.5346 73.75C42.2873 73.1433 42.1636 72.4643 42.1636 71.713C42.1636 70.9477 42.2873 70.2663 42.5346 69.669C42.7866 69.067 43.1553 68.5933 43.6406 68.248C44.126 67.9027 44.7233 67.73 45.4326 67.73C46.1233 67.73 46.716 67.905 47.2106 68.255C47.7053 68.605 48.0833 69.081 48.3446 69.683C48.6106 70.285 48.7436 70.9617 48.7436 71.713C48.7436 72.469 48.6106 73.148 48.3446 73.75C48.0786 74.352 47.696 74.8303 47.1966 75.185C46.6973 75.535 46.0953 75.71 45.3906 75.71ZM41.9886 78.86V67.94H42.9126V73.631H43.0246V78.86H41.9886ZM45.2856 74.751C45.813 74.751 46.2516 74.618 46.6016 74.352C46.9516 74.086 47.213 73.7243 47.3856 73.267C47.563 72.805 47.6516 72.287 47.6516 71.713C47.6516 71.1437 47.5653 70.6303 47.3926 70.173C47.22 69.7157 46.9563 69.354 46.6016 69.088C46.2516 68.822 45.806 68.689 45.2646 68.689C44.7373 68.689 44.2986 68.8173 43.9486 69.074C43.6033 69.3307 43.3443 69.6877 43.1716 70.145C42.999 70.5977 42.9126 71.1203 42.9126 71.713C42.9126 72.2963 42.999 72.819 43.1716 73.281C43.3443 73.7383 43.6056 74.0977 43.9556 74.359C44.3056 74.6203 44.749 74.751 45.2856 74.751ZM54.3968 75.5C53.9721 75.5887 53.5521 75.6237 53.1368 75.605C52.7261 75.5863 52.3574 75.4977 52.0308 75.339C51.7088 75.1803 51.4638 74.933 51.2958 74.597C51.1604 74.317 51.0858 74.0347 51.0718 73.75C51.0624 73.4607 51.0578 73.1317 51.0578 72.763V65.84H52.0798V72.721C52.0798 73.0383 52.0821 73.3043 52.0868 73.519C52.0961 73.729 52.1451 73.9157 52.2338 74.079C52.4018 74.3917 52.6678 74.5783 53.0318 74.639C53.4004 74.6997 53.8554 74.6857 54.3968 74.597V75.5ZM49.4408 68.822V67.94H54.3968V68.822H49.4408ZM56.0263 66.505V65.35H57.0553V66.505H56.0263ZM56.0263 75.5V67.94H57.0553V75.5H56.0263ZM62.3108 75.71C61.5595 75.71 60.9178 75.5397 60.3858 75.199C59.8538 74.8583 59.4455 74.387 59.1608 73.785C58.8762 73.183 58.7338 72.4923 58.7338 71.713C58.7338 70.9197 58.8785 70.2243 59.1678 69.627C59.4572 69.0297 59.8678 68.5653 60.3998 68.234C60.9365 67.898 61.5735 67.73 62.3108 67.73C63.0668 67.73 63.7108 67.9003 64.2428 68.241C64.7795 68.577 65.1878 69.046 65.4678 69.648C65.7525 70.2453 65.8948 70.9337 65.8948 71.713C65.8948 72.5063 65.7525 73.204 65.4678 73.806C65.1832 74.4033 64.7725 74.87 64.2358 75.206C63.6992 75.542 63.0575 75.71 62.3108 75.71ZM62.3108 74.723C63.1508 74.723 63.7762 74.4453 64.1868 73.89C64.5975 73.33 64.8028 72.6043 64.8028 71.713C64.8028 70.7983 64.5952 70.0703 64.1798 69.529C63.7692 68.9877 63.1462 68.717 62.3108 68.717C61.7462 68.717 61.2795 68.8453 60.9108 69.102C60.5468 69.354 60.2738 69.7063 60.0918 70.159C59.9145 70.607 59.8258 71.125 59.8258 71.713C59.8258 72.623 60.0358 73.3533 60.4558 73.904C60.8758 74.45 61.4942 74.723 62.3108 74.723ZM72.899 75.5V71.643C72.899 71.223 72.8593 70.838 72.78 70.488C72.7007 70.1333 72.5723 69.8253 72.395 69.564C72.2223 69.298 71.996 69.0927 71.716 68.948C71.4407 68.8033 71.1047 68.731 70.708 68.731C70.344 68.731 70.022 68.794 69.742 68.92C69.4667 69.046 69.2333 69.228 69.042 69.466C68.8553 69.6993 68.713 69.984 68.615 70.32C68.517 70.656 68.468 71.0387 68.468 71.468L67.74 71.307C67.74 70.5323 67.8753 69.8813 68.146 69.354C68.4167 68.8267 68.79 68.4277 69.266 68.157C69.742 67.8863 70.288 67.751 70.904 67.751C71.3567 67.751 71.751 67.821 72.087 67.961C72.4277 68.101 72.7147 68.29 72.948 68.528C73.186 68.766 73.3773 69.039 73.522 69.347C73.6667 69.6503 73.7717 69.9747 73.837 70.32C73.9023 70.6607 73.935 71.0013 73.935 71.342V75.5H72.899ZM67.432 75.5V67.94H68.363V69.802H68.468V75.5H67.432Z" fill="black"/>
</svg>
