<svg width="79" height="80" viewBox="0 0 79 80" fill="none" xmlns="http://www.w3.org/2000/svg">
<circle cx="39.5" cy="28" r="28" fill="#073D3D"/>
<path d="M29.469 16L29.156 16.344C29.156 16.344 28.398 17 27.906 17V19C28.586 19 29.055 18.723 29.5 18.469V23H31.5V16H29.469ZM34.5 19V21H51.5V19H34.5ZM30 25C29.6716 24.9996 29.3463 25.064 29.0428 25.1895C28.7393 25.315 28.4636 25.4991 28.2314 25.7314C27.9991 25.9636 27.815 26.2393 27.6895 26.5428C27.564 26.8463 27.4996 27.1716 27.5 27.5V28H29.5V27.5C29.5 27.285 29.785 27 30 27C30.215 27 30.5 27.285 30.5 27.5L30.406 27.594L27.813 30.094L27.5 30.375V32H32.5V30H30.781L31.656 29.125L31.781 29.031L31.75 29C32.25 28.59 32.5 27.98 32.5 27.5C32.5 26.117 31.383 25 30 25ZM34.5 28V30H51.5V28H34.5ZM27.5 34V36H28.875L28.625 36.406L28.5 36.625V38H30C30.215 38 30.5 38.285 30.5 38.5C30.5 38.715 30.215 39 30 39H27.5V41H30C31.383 41 32.5 39.883 32.5 38.5C32.5 37.496 31.82 36.805 30.969 36.406L31.375 35.719L31.5 35.469V34H27.5ZM34.5 37V39H51.5V37H34.5Z" fill="#F3F3EE"/>
<path d="M1.12 75.5V65.42H2.149V75.5H1.12ZM9.70758 75.5V71.643C9.70758 71.223 9.66791 70.838 9.58858 70.488C9.50925 70.1333 9.38091 69.8253 9.20358 69.564C9.03091 69.298 8.80458 69.0927 8.52458 68.948C8.24925 68.8033 7.91325 68.731 7.51658 68.731C7.15258 68.731 6.83058 68.794 6.55058 68.92C6.27524 69.046 6.04191 69.228 5.85058 69.466C5.66391 69.6993 5.52158 69.984 5.42358 70.32C5.32558 70.656 5.27658 71.0387 5.27658 71.468L4.54858 71.307C4.54858 70.5323 4.68391 69.8813 4.95458 69.354C5.22524 68.8267 5.59858 68.4277 6.07458 68.157C6.55058 67.8863 7.09658 67.751 7.71258 67.751C8.16525 67.751 8.55958 67.821 8.89558 67.961C9.23624 68.101 9.52325 68.29 9.75658 68.528C9.99458 68.766 10.1859 69.039 10.3306 69.347C10.4752 69.6503 10.5802 69.9747 10.6456 70.32C10.7109 70.6607 10.7436 71.0013 10.7436 71.342V75.5H9.70758ZM4.24058 75.5V67.94H5.17158V69.802H5.27658V75.5H4.24058ZM15.3811 75.703C14.4944 75.703 13.7641 75.5117 13.1901 75.129C12.6207 74.7463 12.2707 74.2143 12.1401 73.533L13.1901 73.358C13.3021 73.7873 13.5564 74.1303 13.9531 74.387C14.3544 74.639 14.8491 74.765 15.4371 74.765C16.0111 74.765 16.4637 74.646 16.7951 74.408C17.1264 74.1653 17.2921 73.8363 17.2921 73.421C17.2921 73.1877 17.2384 72.9987 17.1311 72.854C17.0284 72.7047 16.8161 72.567 16.4941 72.441C16.1721 72.315 15.6914 72.1657 15.0521 71.993C14.3661 71.8063 13.8294 71.6197 13.4421 71.433C13.0547 71.2463 12.7794 71.0317 12.6161 70.789C12.4527 70.5417 12.3711 70.2407 12.3711 69.886C12.3711 69.4567 12.4924 69.081 12.7351 68.759C12.9777 68.4323 13.3137 68.1803 13.7431 68.003C14.1724 67.821 14.6717 67.73 15.2411 67.73C15.8104 67.73 16.3191 67.8233 16.7671 68.01C17.2197 68.192 17.5837 68.4487 17.8591 68.78C18.1344 69.1113 18.2977 69.4963 18.3491 69.935L17.2991 70.124C17.2291 69.6807 17.0074 69.3307 16.6341 69.074C16.2654 68.8127 15.7964 68.6773 15.2271 68.668C14.6904 68.654 14.2541 68.7567 13.9181 68.976C13.5821 69.1907 13.4141 69.4777 13.4141 69.837C13.4141 70.0377 13.4747 70.2103 13.5961 70.355C13.7174 70.495 13.9367 70.628 14.2541 70.754C14.5761 70.88 15.0334 71.0177 15.6261 71.167C16.3214 71.3443 16.8674 71.531 17.2641 71.727C17.6607 71.923 17.9431 72.154 18.1111 72.42C18.2791 72.686 18.3631 73.015 18.3631 73.407C18.3631 74.121 18.0971 74.6833 17.5651 75.094C17.0377 75.5 16.3097 75.703 15.3811 75.703ZM24.0315 75.5C23.6069 75.5887 23.1869 75.6237 22.7715 75.605C22.3609 75.5863 21.9922 75.4977 21.6655 75.339C21.3435 75.1803 21.0985 74.933 20.9305 74.597C20.7952 74.317 20.7205 74.0347 20.7065 73.75C20.6972 73.4607 20.6925 73.1317 20.6925 72.763V65.84H21.7145V72.721C21.7145 73.0383 21.7169 73.3043 21.7215 73.519C21.7309 73.729 21.7799 73.9157 21.8685 74.079C22.0365 74.3917 22.3025 74.5783 22.6665 74.639C23.0352 74.6997 23.4902 74.6857 24.0315 74.597V75.5ZM19.0755 68.822V67.94H24.0315V68.822H19.0755ZM25.521 75.5V67.94H26.445V69.76L26.263 69.522C26.347 69.298 26.4567 69.0927 26.592 68.906C26.7273 68.7147 26.8743 68.5583 27.033 68.437C27.229 68.2643 27.4577 68.1337 27.719 68.045C27.9803 67.9517 28.244 67.898 28.51 67.884C28.776 67.8653 29.0187 67.884 29.238 67.94V68.906C28.9627 68.836 28.6617 68.8197 28.335 68.857C28.0083 68.8943 27.7073 69.025 27.432 69.249C27.18 69.445 26.991 69.6807 26.865 69.956C26.739 70.2267 26.655 70.516 26.613 70.824C26.571 71.1273 26.55 71.4283 26.55 71.727V75.5H25.521ZM33.4569 75.689C33.0043 75.689 32.6076 75.619 32.2669 75.479C31.9309 75.339 31.6439 75.15 31.4059 74.912C31.1726 74.674 30.9836 74.4033 30.8389 74.1C30.6943 73.792 30.5893 73.4677 30.5239 73.127C30.4586 72.7817 30.4259 72.4387 30.4259 72.098V67.94H31.4619V71.797C31.4619 72.2123 31.5016 72.5973 31.5809 72.952C31.6603 73.3067 31.7863 73.617 31.9589 73.883C32.1363 74.1443 32.3626 74.3473 32.6379 74.492C32.9179 74.6367 33.2563 74.709 33.6529 74.709C34.0169 74.709 34.3366 74.646 34.6119 74.52C34.8919 74.394 35.1253 74.2143 35.3119 73.981C35.5033 73.743 35.6479 73.456 35.7459 73.12C35.8439 72.7793 35.8929 72.3967 35.8929 71.972L36.6209 72.133C36.6209 72.9077 36.4856 73.5587 36.2149 74.086C35.9443 74.6133 35.5709 75.0123 35.0949 75.283C34.6189 75.5537 34.0729 75.689 33.4569 75.689ZM35.9979 75.5V73.638H35.8929V67.94H36.9219V75.5H35.9979ZM42.0144 75.71C41.2538 75.71 40.6098 75.5397 40.0824 75.199C39.5551 74.8583 39.1538 74.3893 38.8784 73.792C38.6078 73.19 38.4678 72.4993 38.4584 71.72C38.4678 70.9267 38.6124 70.2313 38.8924 69.634C39.1724 69.032 39.5761 68.5653 40.1034 68.234C40.6308 67.898 41.2701 67.73 42.0214 67.73C42.7868 67.73 43.4518 67.9167 44.0164 68.29C44.5858 68.6633 44.9754 69.1743 45.1854 69.823L44.1774 70.145C44.0001 69.6923 43.7178 69.3423 43.3304 69.095C42.9478 68.843 42.5091 68.717 42.0144 68.717C41.4591 68.717 40.9994 68.8453 40.6354 69.102C40.2714 69.354 40.0008 69.7063 39.8234 70.159C39.6461 70.6117 39.5551 71.132 39.5504 71.72C39.5598 72.6253 39.7698 73.3533 40.1804 73.904C40.5911 74.45 41.2024 74.723 42.0144 74.723C42.5278 74.723 42.9641 74.6063 43.3234 74.373C43.6874 74.135 43.9628 73.7897 44.1494 73.337L45.1854 73.645C44.9054 74.317 44.4948 74.8303 43.9534 75.185C43.4121 75.535 42.7658 75.71 42.0144 75.71ZM50.7464 75.5C50.3217 75.5887 49.9017 75.6237 49.4864 75.605C49.0757 75.5863 48.7071 75.4977 48.3804 75.339C48.0584 75.1803 47.8134 74.933 47.6454 74.597C47.5101 74.317 47.4354 74.0347 47.4214 73.75C47.4121 73.4607 47.4074 73.1317 47.4074 72.763V65.84H48.4294V72.721C48.4294 73.0383 48.4317 73.3043 48.4364 73.519C48.4457 73.729 48.4947 73.9157 48.5834 74.079C48.7514 74.3917 49.0174 74.5783 49.3814 74.639C49.7501 74.6997 50.2051 74.6857 50.7464 74.597V75.5ZM45.7904 68.822V67.94H50.7464V68.822H45.7904ZM52.3759 66.505V65.35H53.4049V66.505H52.3759ZM52.3759 75.5V67.94H53.4049V75.5H52.3759ZM58.6604 75.71C57.9091 75.71 57.2674 75.5397 56.7354 75.199C56.2034 74.8583 55.7951 74.387 55.5104 73.785C55.2258 73.183 55.0834 72.4923 55.0834 71.713C55.0834 70.9197 55.2281 70.2243 55.5174 69.627C55.8068 69.0297 56.2174 68.5653 56.7494 68.234C57.2861 67.898 57.9231 67.73 58.6604 67.73C59.4164 67.73 60.0604 67.9003 60.5924 68.241C61.1291 68.577 61.5374 69.046 61.8174 69.648C62.1021 70.2453 62.2444 70.9337 62.2444 71.713C62.2444 72.5063 62.1021 73.204 61.8174 73.806C61.5328 74.4033 61.1221 74.87 60.5854 75.206C60.0488 75.542 59.4071 75.71 58.6604 75.71ZM58.6604 74.723C59.5004 74.723 60.1258 74.4453 60.5364 73.89C60.9471 73.33 61.1524 72.6043 61.1524 71.713C61.1524 70.7983 60.9448 70.0703 60.5294 69.529C60.1188 68.9877 59.4958 68.717 58.6604 68.717C58.0958 68.717 57.6291 68.8453 57.2604 69.102C56.8964 69.354 56.6234 69.7063 56.4414 70.159C56.2641 70.607 56.1754 71.125 56.1754 71.713C56.1754 72.623 56.3854 73.3533 56.8054 73.904C57.2254 74.45 57.8438 74.723 58.6604 74.723ZM69.2486 75.5V71.643C69.2486 71.223 69.2089 70.838 69.1296 70.488C69.0503 70.1333 68.9219 69.8253 68.7446 69.564C68.5719 69.298 68.3456 69.0927 68.0656 68.948C67.7903 68.8033 67.4543 68.731 67.0576 68.731C66.6936 68.731 66.3716 68.794 66.0916 68.92C65.8163 69.046 65.5829 69.228 65.3916 69.466C65.2049 69.6993 65.0626 69.984 64.9646 70.32C64.8666 70.656 64.8176 71.0387 64.8176 71.468L64.0896 71.307C64.0896 70.5323 64.2249 69.8813 64.4956 69.354C64.7663 68.8267 65.1396 68.4277 65.6156 68.157C66.0916 67.8863 66.6376 67.751 67.2536 67.751C67.7063 67.751 68.1006 67.821 68.4366 67.961C68.7773 68.101 69.0643 68.29 69.2976 68.528C69.5356 68.766 69.7269 69.039 69.8716 69.347C70.0163 69.6503 70.1213 69.9747 70.1866 70.32C70.2519 70.6607 70.2846 71.0013 70.2846 71.342V75.5H69.2486ZM63.7816 75.5V67.94H64.7126V69.802H64.8176V75.5H63.7816ZM74.9221 75.703C74.0354 75.703 73.3051 75.5117 72.7311 75.129C72.1618 74.7463 71.8118 74.2143 71.6811 73.533L72.7311 73.358C72.8431 73.7873 73.0974 74.1303 73.4941 74.387C73.8954 74.639 74.3901 74.765 74.9781 74.765C75.5521 74.765 76.0048 74.646 76.3361 74.408C76.6674 74.1653 76.8331 73.8363 76.8331 73.421C76.8331 73.1877 76.7794 72.9987 76.6721 72.854C76.5694 72.7047 76.3571 72.567 76.0351 72.441C75.7131 72.315 75.2324 72.1657 74.5931 71.993C73.9071 71.8063 73.3704 71.6197 72.9831 71.433C72.5958 71.2463 72.3204 71.0317 72.1571 70.789C71.9938 70.5417 71.9121 70.2407 71.9121 69.886C71.9121 69.4567 72.0334 69.081 72.2761 68.759C72.5188 68.4323 72.8548 68.1803 73.2841 68.003C73.7134 67.821 74.2128 67.73 74.7821 67.73C75.3514 67.73 75.8601 67.8233 76.3081 68.01C76.7608 68.192 77.1248 68.4487 77.4001 68.78C77.6754 69.1113 77.8388 69.4963 77.8901 69.935L76.8401 70.124C76.7701 69.6807 76.5484 69.3307 76.1751 69.074C75.8064 68.8127 75.3374 68.6773 74.7681 68.668C74.2314 68.654 73.7951 68.7567 73.4591 68.976C73.1231 69.1907 72.9551 69.4777 72.9551 69.837C72.9551 70.0377 73.0158 70.2103 73.1371 70.355C73.2584 70.495 73.4778 70.628 73.7951 70.754C74.1171 70.88 74.5744 71.0177 75.1671 71.167C75.8624 71.3443 76.4084 71.531 76.8051 71.727C77.2018 71.923 77.4841 72.154 77.6521 72.42C77.8201 72.686 77.9041 73.015 77.9041 73.407C77.9041 74.121 77.6381 74.6833 77.1061 75.094C76.5788 75.5 75.8508 75.703 74.9221 75.703Z" fill="black"/>
</svg>
