<svg width="93" height="18" viewBox="0 0 93 18" fill="none" xmlns="http://www.w3.org/2000/svg">
<path d="M9.9375 5C9.85417 4.00521 9.44792 3.20052 8.71875 2.58594C7.99479 1.97135 7.05729 1.66406 5.90625 1.66406C5.13021 1.66406 4.4401 1.80729 3.83594 2.09375C3.23177 2.38021 2.75781 2.77083 2.41406 3.26562C2.07031 3.76042 1.89844 4.32812 1.89844 4.96875C1.89844 5.38021 1.97656 5.7526 2.13281 6.08594C2.29427 6.41406 2.52083 6.70833 2.8125 6.96875C3.10417 7.22396 3.45052 7.44792 3.85156 7.64062C4.2526 7.83333 4.69531 8.0026 5.17969 8.14844L6.92969 8.66406C7.52865 8.84635 8.08073 9.05729 8.58594 9.29687C9.09635 9.53646 9.53906 9.82292 9.91406 10.1562C10.2943 10.4844 10.5885 10.8698 10.7969 11.3125C11.0104 11.7552 11.1172 12.2656 11.1172 12.8438C11.1172 13.6875 10.8984 14.4427 10.4609 15.1094C10.0286 15.776 9.41146 16.3021 8.60938 16.6875C7.8125 17.0677 6.8724 17.2578 5.78906 17.2578C4.75781 17.2578 3.85938 17.0833 3.09375 16.7344C2.33333 16.3854 1.73177 15.901 1.28906 15.2812C0.846354 14.6562 0.596354 13.9375 0.539063 13.125H1.53906C1.59115 13.7865 1.80208 14.3594 2.17188 14.8437C2.54688 15.3229 3.04427 15.6927 3.66406 15.9531C4.28385 16.2135 4.99219 16.3437 5.78906 16.3437C6.64844 16.3437 7.40625 16.1979 8.0625 15.9062C8.71875 15.6094 9.23177 15.1979 9.60156 14.6719C9.97135 14.1458 10.1563 13.5339 10.1563 12.8359C10.1563 12.2734 10.0234 11.7917 9.75781 11.3906C9.49219 10.9896 9.09896 10.6432 8.57813 10.3516C8.0625 10.0599 7.42188 9.79948 6.65625 9.57031L4.78906 9.00781C3.53906 8.6276 2.58333 8.10937 1.92188 7.45312C1.26563 6.79687 0.9375 5.97917 0.9375 5C0.9375 4.17708 1.15625 3.44792 1.59375 2.8125C2.03125 2.17187 2.625 1.66927 3.375 1.30469C4.13021 0.940104 4.98177 0.757812 5.92969 0.757812C6.88281 0.757812 7.72396 0.942708 8.45312 1.3125C9.18229 1.67708 9.76042 2.17969 10.1875 2.82031C10.6146 3.45573 10.8516 4.18229 10.8984 5H9.9375ZM13.9141 1.90625V1H25.125V1.90625H20.0078V17H19.0313V1.90625H13.9141ZM39.5195 1H40.4961V11.5937C40.4961 12.6823 40.2435 13.6536 39.7383 14.5078C39.2331 15.3568 38.5352 16.0286 37.6445 16.5234C36.7591 17.013 35.7409 17.2578 34.5898 17.2578C33.444 17.2578 32.4258 17.013 31.5352 16.5234C30.6445 16.0286 29.944 15.3542 29.4336 14.5C28.9284 13.6458 28.6784 12.6771 28.6836 11.5937V1H29.6602V11.5391C29.6602 12.4609 29.8685 13.2812 30.2852 14C30.707 14.7187 31.2878 15.2865 32.0273 15.7031C32.7669 16.1146 33.6211 16.3203 34.5898 16.3203C35.5586 16.3203 36.4128 16.1146 37.1523 15.7031C37.8919 15.2865 38.4701 14.7187 38.8867 14C39.3086 13.2812 39.5195 12.4609 39.5195 11.5391V1ZM49.5566 17H45.1191V1H49.9004C51.4004 1 52.6842 1.31771 53.752 1.95312C54.8197 2.58854 55.6374 3.5 56.2051 4.6875C56.778 5.86979 57.0618 7.28906 57.0566 8.94531C57.0514 10.638 56.7546 12.0859 56.166 13.2891C55.5775 14.487 54.7259 15.4062 53.6113 16.0469C52.4967 16.6823 51.1452 17 49.5566 17ZM46.0957 16.0937H49.5176C50.9447 16.0937 52.1478 15.8099 53.127 15.2422C54.1061 14.6693 54.8457 13.849 55.3457 12.7812C55.8509 11.7135 56.1009 10.4349 56.0957 8.94531C56.0957 7.47656 55.8535 6.21875 55.3691 5.17187C54.8848 4.11979 54.179 3.3125 53.252 2.75C52.3301 2.1875 51.1999 1.90625 49.8613 1.90625H46.0957V16.0937ZM61.8438 1V17H60.8672V1H61.8438ZM64.8496 1H66.0059L71.0449 8.71875H71.1543L76.1934 1H77.3496L71.5918 9.74219V17H70.6074V9.74219L64.8496 1ZM92.3281 9C92.3281 10.651 92.0417 12.0937 91.4688 13.3281C90.8958 14.5573 90.099 15.513 89.0781 16.1953C88.0625 16.8776 86.8906 17.2187 85.5625 17.2187C84.2292 17.2187 83.0521 16.8776 82.0313 16.1953C81.0156 15.5078 80.2214 14.5495 79.6484 13.3203C79.0755 12.0859 78.7891 10.6458 78.7891 9C78.7891 7.34896 79.0755 5.90885 79.6484 4.67969C80.2266 3.45052 81.0234 2.49479 82.0391 1.8125C83.0547 1.125 84.2292 0.781249 85.5625 0.781249C86.8906 0.781249 88.0625 1.1224 89.0781 1.80469C90.099 2.48698 90.8958 3.44531 91.4688 4.67969C92.0417 5.90885 92.3281 7.34896 92.3281 9ZM91.375 9C91.375 7.51562 91.125 6.22917 90.625 5.14062C90.1302 4.05208 89.4453 3.21094 88.5703 2.61719C87.6953 2.01823 86.6927 1.71875 85.5625 1.71875C84.4323 1.71875 83.4297 2.01562 82.5547 2.60938C81.6797 3.19792 80.9922 4.03906 80.4922 5.13281C79.9974 6.22135 79.75 7.51042 79.75 9C79.75 10.474 79.9948 11.7578 80.4844 12.8516C80.9792 13.9401 81.6641 14.7839 82.5391 15.3828C83.4141 15.9818 84.4219 16.2812 85.5625 16.2812C86.6927 16.2812 87.6953 15.9844 88.5703 15.3906C89.4453 14.7917 90.1302 13.9479 90.625 12.8594C91.125 11.7708 91.375 10.4844 91.375 9Z" fill="black"/>
</svg>
