<svg width="75" height="80" viewBox="0 0 75 80" fill="none" xmlns="http://www.w3.org/2000/svg">
<circle cx="37.5" cy="28" r="28" fill="#073D3D"/>
<path d="M40 21.5003L44 25.5003M28.5 37.0003H32.5L45.5 24.0003C46.0304 23.4699 46.3284 22.7504 46.3284 22.0003C46.3284 21.2502 46.0304 20.5307 45.5 20.0003C44.9696 19.4699 44.2501 19.1719 43.5 19.1719C42.7499 19.1719 42.0304 19.4699 41.5 20.0003L28.5 33.0003V37.0003Z" stroke="#F3F3EE" stroke-width="2" stroke-linecap="round" stroke-linejoin="round"/>
<path d="M37.5 24L32.5 19L28.5 23L33.5 28M32.5 24L31 25.5M41.5 28L46.5 33L42.5 37L37.5 32M41.5 33L40 34.5" stroke="#F3F3EE" stroke-width="2" stroke-linecap="round" stroke-linejoin="round"/>
<path d="M8.48 75.5V65.42H9.425L13.387 73.897L17.328 65.42H18.287V75.493H17.307V67.716L13.716 75.5H13.051L9.467 67.716V75.5H8.48ZM22.4145 75.71C21.8452 75.71 21.3668 75.6073 20.9795 75.402C20.5968 75.1967 20.3098 74.9237 20.1185 74.583C19.9272 74.2423 19.8315 73.8713 19.8315 73.47C19.8315 73.0593 19.9132 72.7093 20.0765 72.42C20.2445 72.126 20.4708 71.8857 20.7555 71.699C21.0448 71.5123 21.3785 71.37 21.7565 71.272C22.1392 71.1787 22.5615 71.097 23.0235 71.027C23.4902 70.9523 23.9452 70.8893 24.3885 70.838C24.8365 70.782 25.2285 70.7283 25.5645 70.677L25.2005 70.901C25.2145 70.1543 25.0698 69.6013 24.7665 69.242C24.4632 68.8827 23.9358 68.703 23.1845 68.703C22.6665 68.703 22.2278 68.8197 21.8685 69.053C21.5138 69.2863 21.2642 69.655 21.1195 70.159L20.1185 69.865C20.2912 69.1883 20.6388 68.6633 21.1615 68.29C21.6842 67.9167 22.3632 67.73 23.1985 67.73C23.8892 67.73 24.4748 67.8607 24.9555 68.122C25.4408 68.3787 25.7838 68.752 25.9845 69.242C26.0778 69.4613 26.1385 69.7063 26.1665 69.977C26.1945 70.2477 26.2085 70.523 26.2085 70.803V75.5H25.2915V73.603L25.5575 73.715C25.3008 74.3637 24.9018 74.8583 24.3605 75.199C23.8192 75.5397 23.1705 75.71 22.4145 75.71ZM22.5335 74.821C23.0142 74.821 23.4342 74.7347 23.7935 74.562C24.1528 74.3893 24.4422 74.1537 24.6615 73.855C24.8808 73.5517 25.0232 73.211 25.0885 72.833C25.1445 72.5903 25.1748 72.3243 25.1795 72.035C25.1842 71.741 25.1865 71.5217 25.1865 71.377L25.5785 71.58C25.2285 71.6267 24.8482 71.6733 24.4375 71.72C24.0315 71.7667 23.6302 71.8203 23.2335 71.881C22.8415 71.9417 22.4868 72.014 22.1695 72.098C21.9548 72.1587 21.7472 72.245 21.5465 72.357C21.3458 72.4643 21.1802 72.609 21.0495 72.791C20.9235 72.973 20.8605 73.1993 20.8605 73.47C20.8605 73.6893 20.9142 73.9017 21.0215 74.107C21.1335 74.3123 21.3108 74.4827 21.5535 74.618C21.8008 74.7533 22.1275 74.821 22.5335 74.821ZM32.1468 75.5C31.7221 75.5887 31.3021 75.6237 30.8868 75.605C30.4761 75.5863 30.1074 75.4977 29.7808 75.339C29.4588 75.1803 29.2138 74.933 29.0458 74.597C28.9104 74.317 28.8358 74.0347 28.8218 73.75C28.8124 73.4607 28.8078 73.1317 28.8078 72.763V65.84H29.8298V72.721C29.8298 73.0383 29.8321 73.3043 29.8368 73.519C29.8461 73.729 29.8951 73.9157 29.9838 74.079C30.1518 74.3917 30.4178 74.5783 30.7818 74.639C31.1504 74.6997 31.6054 74.6857 32.1468 74.597V75.5ZM27.1908 68.822V67.94H32.1468V68.822H27.1908ZM36.5618 75.71C35.8245 75.71 35.1851 75.5467 34.6438 75.22C34.1071 74.8933 33.6895 74.4337 33.3908 73.841C33.0921 73.2483 32.9428 72.553 32.9428 71.755C32.9428 70.929 33.0898 70.215 33.3838 69.613C33.6778 69.011 34.0908 68.5467 34.6228 68.22C35.1595 67.8933 35.7918 67.73 36.5198 67.73C37.2665 67.73 37.9035 67.9027 38.4308 68.248C38.9581 68.5887 39.3571 69.0787 39.6278 69.718C39.8985 70.3573 40.0221 71.1203 39.9988 72.007H38.9488V71.643C38.9301 70.663 38.7178 69.9233 38.3118 69.424C37.9105 68.9247 37.3225 68.675 36.5478 68.675C35.7358 68.675 35.1128 68.9387 34.6788 69.466C34.2495 69.9933 34.0348 70.7447 34.0348 71.72C34.0348 72.672 34.2495 73.4117 34.6788 73.939C35.1128 74.4617 35.7265 74.723 36.5198 74.723C37.0611 74.723 37.5325 74.5993 37.9338 74.352C38.3398 74.1 38.6595 73.7383 38.8928 73.267L39.8518 73.638C39.5531 74.296 39.1121 74.807 38.5288 75.171C37.9501 75.5303 37.2945 75.71 36.5618 75.71ZM33.6708 72.007V71.146H39.4458V72.007H33.6708ZM41.5523 75.5V67.94H42.4763V69.76L42.2943 69.522C42.3783 69.298 42.4879 69.0927 42.6233 68.906C42.7586 68.7147 42.9056 68.5583 43.0643 68.437C43.2603 68.2643 43.4889 68.1337 43.7503 68.045C44.0116 67.9517 44.2753 67.898 44.5413 67.884C44.8073 67.8653 45.0499 67.884 45.2693 67.94V68.906C44.9939 68.836 44.6929 68.8197 44.3663 68.857C44.0396 68.8943 43.7386 69.025 43.4633 69.249C43.2113 69.445 43.0223 69.6807 42.8963 69.956C42.7703 70.2267 42.6863 70.516 42.6443 70.824C42.6023 71.1273 42.5813 71.4283 42.5813 71.727V75.5H41.5523ZM46.7372 66.505V65.35H47.7662V66.505H46.7372ZM46.7372 75.5V67.94H47.7662V75.5H46.7372ZM52.0278 75.71C51.4584 75.71 50.9801 75.6073 50.5928 75.402C50.2101 75.1967 49.9231 74.9237 49.7318 74.583C49.5404 74.2423 49.4448 73.8713 49.4448 73.47C49.4448 73.0593 49.5264 72.7093 49.6898 72.42C49.8578 72.126 50.0841 71.8857 50.3688 71.699C50.6581 71.5123 50.9918 71.37 51.3698 71.272C51.7524 71.1787 52.1748 71.097 52.6368 71.027C53.1034 70.9523 53.5584 70.8893 54.0018 70.838C54.4498 70.782 54.8418 70.7283 55.1778 70.677L54.8138 70.901C54.8278 70.1543 54.6831 69.6013 54.3798 69.242C54.0764 68.8827 53.5491 68.703 52.7978 68.703C52.2798 68.703 51.8411 68.8197 51.4818 69.053C51.1271 69.2863 50.8774 69.655 50.7328 70.159L49.7318 69.865C49.9044 69.1883 50.2521 68.6633 50.7748 68.29C51.2974 67.9167 51.9764 67.73 52.8118 67.73C53.5024 67.73 54.0881 67.8607 54.5688 68.122C55.0541 68.3787 55.3971 68.752 55.5978 69.242C55.6911 69.4613 55.7518 69.7063 55.7798 69.977C55.8078 70.2477 55.8218 70.523 55.8218 70.803V75.5H54.9048V73.603L55.1708 73.715C54.9141 74.3637 54.5151 74.8583 53.9738 75.199C53.4324 75.5397 52.7838 75.71 52.0278 75.71ZM52.1468 74.821C52.6274 74.821 53.0474 74.7347 53.4068 74.562C53.7661 74.3893 54.0554 74.1537 54.2748 73.855C54.4941 73.5517 54.6364 73.211 54.7018 72.833C54.7578 72.5903 54.7881 72.3243 54.7928 72.035C54.7974 71.741 54.7998 71.5217 54.7998 71.377L55.1918 71.58C54.8418 71.6267 54.4614 71.6733 54.0508 71.72C53.6448 71.7667 53.2434 71.8203 52.8468 71.881C52.4548 71.9417 52.1001 72.014 51.7828 72.098C51.5681 72.1587 51.3604 72.245 51.1598 72.357C50.9591 72.4643 50.7934 72.609 50.6628 72.791C50.5368 72.973 50.4738 73.1993 50.4738 73.47C50.4738 73.6893 50.5274 73.9017 50.6348 74.107C50.7468 74.3123 50.9241 74.4827 51.1668 74.618C51.4141 74.7533 51.7408 74.821 52.1468 74.821ZM57.7841 75.5V65.21H58.8131V75.5H57.7841ZM63.7326 75.703C62.846 75.703 62.1156 75.5117 61.5416 75.129C60.9723 74.7463 60.6223 74.2143 60.4916 73.533L61.5416 73.358C61.6536 73.7873 61.908 74.1303 62.3046 74.387C62.706 74.639 63.2006 74.765 63.7886 74.765C64.3626 74.765 64.8153 74.646 65.1466 74.408C65.478 74.1653 65.6436 73.8363 65.6436 73.421C65.6436 73.1877 65.59 72.9987 65.4826 72.854C65.38 72.7047 65.1676 72.567 64.8456 72.441C64.5236 72.315 64.043 72.1657 63.4036 71.993C62.7176 71.8063 62.181 71.6197 61.7936 71.433C61.4063 71.2463 61.131 71.0317 60.9676 70.789C60.8043 70.5417 60.7226 70.2407 60.7226 69.886C60.7226 69.4567 60.844 69.081 61.0866 68.759C61.3293 68.4323 61.6653 68.1803 62.0946 68.003C62.524 67.821 63.0233 67.73 63.5926 67.73C64.162 67.73 64.6706 67.8233 65.1186 68.01C65.5713 68.192 65.9353 68.4487 66.2106 68.78C66.486 69.1113 66.6493 69.4963 66.7006 69.935L65.6506 70.124C65.5806 69.6807 65.359 69.3307 64.9856 69.074C64.617 68.8127 64.148 68.6773 63.5786 68.668C63.042 68.654 62.6056 68.7567 62.2696 68.976C61.9336 69.1907 61.7656 69.4777 61.7656 69.837C61.7656 70.0377 61.8263 70.2103 61.9476 70.355C62.069 70.495 62.2883 70.628 62.6056 70.754C62.9276 70.88 63.385 71.0177 63.9776 71.167C64.673 71.3443 65.219 71.531 65.6156 71.727C66.0123 71.923 66.2946 72.154 66.4626 72.42C66.6306 72.686 66.7146 73.015 66.7146 73.407C66.7146 74.121 66.4486 74.6833 65.9166 75.094C65.3893 75.5 64.6613 75.703 63.7326 75.703Z" fill="black"/>
</svg>
