<svg width="40" height="40" viewBox="0 0 40 40" fill="none" xmlns="http://www.w3.org/2000/svg">
<mask id="mask0_499_452" style="mask-type:luminance" maskUnits="userSpaceOnUse" x="7" y="6" width="25" height="30">
<path fill-rule="evenodd" clip-rule="evenodd" d="M7 6H31.1383V35.5328H7V6Z" fill="white"/>
</mask>
<g mask="url(#mask0_499_452)">
<path fill-rule="evenodd" clip-rule="evenodd" d="M14.5676 8.125C10.9565 8.125 9.12476 9.51617 9.12476 12.2631V33.1221C9.12476 33.2553 9.20126 33.3275 9.26501 33.3643C9.32876 33.404 9.42934 33.4323 9.54551 33.3672L18.5867 28.2955C18.9097 28.1156 19.3049 28.1142 19.6293 28.2969L28.5926 33.3601C28.7102 33.4281 28.8108 33.3969 28.8745 33.3587C28.9383 33.3204 29.0133 33.2482 29.0133 33.115V12.5223C29.0133 11.4358 29.0133 8.125 23.5762 8.125H14.5676ZM9.40667 35.5333C8.98876 35.5333 8.57084 35.4213 8.19117 35.1975C7.44459 34.7626 6.99976 33.9848 6.99976 33.1221V12.2631C6.99976 8.28225 9.75801 6 14.5676 6H23.5762C28.3815 6 31.1383 8.37858 31.1383 12.5223V33.115C31.1383 33.9792 30.6935 34.7569 29.9455 35.1918C29.2003 35.6282 28.3022 35.6367 27.5485 35.2117L19.1052 30.4418L10.5839 35.2216C10.2156 35.4284 9.81184 35.5333 9.40667 35.5333Z" fill="black"/>
</g>
<path fill-rule="evenodd" clip-rule="evenodd" d="M24.1977 17.657H13.8306C13.2441 17.657 12.7681 17.181 12.7681 16.5945C12.7681 16.008 13.2441 15.532 13.8306 15.532H24.1977C24.7842 15.532 25.2602 16.008 25.2602 16.5945C25.2602 17.181 24.7842 17.657 24.1977 17.657Z" fill="black"/>
</svg>
