<svg width="10" height="13" viewBox="0 0 10 13" fill="none" xmlns="http://www.w3.org/2000/svg">
<path d="M0.208553 0.740954V12.261C0.20892 12.3776 0.241088 12.4919 0.301596 12.5916C0.362103 12.6913 0.448659 12.7727 0.551948 12.8268C0.655235 12.881 0.771345 12.906 0.887775 12.8991C1.00421 12.8922 1.11655 12.8537 1.21272 12.7877L9.53272 7.02768C9.87768 6.78896 9.87768 6.21424 9.53272 5.97488L1.21272 0.214873C1.11675 0.148201 1.00435 0.109103 0.887726 0.101827C0.771101 0.0945507 0.654712 0.119375 0.551206 0.173602C0.447699 0.227829 0.361032 0.309386 0.300622 0.40941C0.240211 0.509435 0.208369 0.624102 0.208553 0.740954Z" fill="#F3F3EE"/>
</svg>
