<svg width="104" height="19" viewBox="0 0 104 19" fill="none" xmlns="http://www.w3.org/2000/svg">
<path d="M7.39359 18.0547H7.37991C5.75296 18.0547 4.31741 17.7539 3.07327 17.1797C1.82913 16.6055 0.954132 15.8809 0.434601 14.9922L1.58304 14.0762C2.38968 15.334 3.26468 16.209 4.19437 16.6738C5.12405 17.1523 6.16312 17.3848 7.3389 17.3848L7.37991 17.3984C8.09085 17.3984 8.77444 17.3164 9.40335 17.1523C10.0323 16.9883 10.5518 16.6738 10.9619 16.2227C11.3721 15.7852 11.5772 15.1426 11.5772 14.2949C11.5772 13.6113 11.3448 13.0371 10.8799 12.5449C10.4151 12.0527 9.79984 11.6152 9.06155 11.2188C8.32327 10.8359 7.51663 10.4395 6.64163 10.0566C5.56155 9.61914 4.50882 9.11328 3.46976 8.53906L3.33304 8.45703C2.26663 7.91016 1.45999 7.21289 0.926788 6.36523C0.612335 5.87305 0.461945 5.29883 0.461945 4.61523C0.461945 3.41211 1.07718 2.40039 2.32132 1.55273C3.41507 0.800781 4.93265 0.390625 6.86038 0.335938H6.91507C8.45999 0.335938 9.77249 0.650391 10.8662 1.25195C11.8916 1.82617 12.6436 2.53711 13.1358 3.41211L11.9873 4.32812C11.5498 3.35742 10.8936 2.56445 10.0049 1.94922C9.10257 1.33398 8.07718 1.01953 6.91507 1.01953V1.00586H6.9014C3.94827 1.00586 2.47171 2.08594 2.47171 4.23242C2.47171 4.83398 2.7178 5.38086 3.22366 5.85938C3.72952 6.33789 4.38577 6.78906 5.19241 7.21289C5.99905 7.63672 6.87405 8.04688 7.81741 8.45703C9.78616 9.33203 11.126 10.0566 11.8643 10.6309C12.9991 11.5605 13.5733 12.709 13.5733 14.0762C13.5733 15.0879 13.0264 15.9902 11.9463 16.7969C10.8526 17.6035 9.33499 18.0273 7.39359 18.0547ZM23.4701 18.0547H20.1888V17.877L20.3392 17.8359C20.64 17.7266 20.7904 17.3164 20.8177 16.6328V1.00586H16.8939C16.2513 1.00586 15.8001 1.11523 15.5267 1.33398C15.2533 1.55273 15.0755 1.74414 14.9935 1.93555L15.2122 0.335938H28.4466L28.6654 1.93555C28.5697 1.74414 28.3919 1.55273 28.1185 1.33398C27.8451 1.11523 27.3939 1.00586 26.765 1.00586H22.8275V16.6328C22.8548 17.3164 23.0052 17.7266 23.306 17.8359L23.4701 17.877V18.0547ZM39.3825 18.082H38.8903C34.4606 17.8906 32.2458 15.1426 32.2458 9.81055V1.79883C32.2184 1.44336 32.1637 1.14258 32.0544 0.923828C31.9723 0.773438 31.863 0.677734 31.7536 0.623047L31.6032 0.582031V0.417969H34.8708V0.582031L34.7204 0.623047C34.5973 0.677734 34.5016 0.759766 34.4333 0.896484C34.3102 1.11523 34.2419 1.375 34.2419 1.68945V9.23633C34.2419 10.4805 34.2829 11.5879 34.3786 12.5723C34.4606 13.5566 34.7341 14.4043 35.1852 15.1016C36.1559 16.5234 37.4821 17.2617 39.1501 17.3164H39.1637C40.5036 17.3164 41.5153 17.1387 42.1989 16.7695C42.8278 16.4277 43.2926 16.0312 43.5934 15.5938C44.3454 14.4453 44.7282 13.2012 44.7282 11.8477V1.78516C44.7145 1.42969 44.6462 1.12891 44.5368 0.910156C44.4548 0.759766 44.3591 0.664062 44.2497 0.609375L44.0993 0.582031V0.404297H46.0407V0.582031H45.9997C45.8493 0.582031 45.7126 0.691406 45.5895 0.910156C45.4801 1.08789 45.4255 1.375 45.3981 1.77148L45.4118 11.8477C45.4118 13.1328 45.1794 14.2129 44.7145 15.1016C44.2497 15.9902 43.6344 16.6738 42.8825 17.166C42.1305 17.6582 41.3102 17.959 40.4079 18.0547C40.0524 18.082 39.7106 18.082 39.3825 18.082ZM55.0488 0.376953C56.9082 0.376953 58.4395 0.773438 59.6289 1.55273C60.8184 2.3457 61.6934 3.39844 62.2676 4.72461C62.8418 6.06445 63.1289 7.55469 63.1289 9.20898C63.1289 10.8633 62.8145 12.3535 62.2129 13.6797C61.5977 15.0195 60.6953 16.0723 59.4922 16.8516C58.2891 17.6445 56.8125 18.0273 55.0488 18.0273H50.6465H49.5391H48.8965V17.8496H48.9375C48.9648 17.8496 49.0059 17.8496 49.0605 17.8223C49.1016 17.8086 49.1426 17.7812 49.1973 17.7266C49.252 17.6719 49.293 17.6035 49.3477 17.5078C49.4023 17.4258 49.4434 17.3027 49.4707 17.1523C49.498 17.002 49.5254 16.8105 49.5391 16.5918V16.5098V1.89453V1.8125C49.5254 1.59375 49.498 1.41602 49.4707 1.26562C49.4434 1.11523 49.4023 0.992188 49.3477 0.896484C49.293 0.814453 49.252 0.746094 49.1973 0.691406C49.1426 0.636719 49.1016 0.609375 49.0605 0.582031C49.0059 0.568359 48.9648 0.554688 48.9375 0.554688H48.8965V0.376953H49.5391H50.5371H55.0488ZM53.6133 17.3574C55.6367 17.3574 57.1953 17.0293 58.2891 16.3457C59.3691 15.6758 60.1074 14.7324 60.5176 13.502C60.9141 12.2715 61.1191 10.8496 61.1191 9.20898C61.1191 7.56836 60.9414 6.13281 60.5859 4.90234C60.2305 3.68555 59.5195 2.74219 58.4531 2.05859C57.3867 1.38867 55.8145 1.04688 53.709 1.04688H51.5488V17.3574H53.6133ZM69.3206 18.0684H66.053V17.8906L66.1898 17.8496C66.4632 17.7402 66.6273 17.3848 66.6819 16.7695V1.70312C66.6273 1.08789 66.4632 0.71875 66.1898 0.609375L66.053 0.582031V0.404297H69.3206V0.582031H69.2796C69.1155 0.595703 68.9925 0.691406 68.8831 0.882812C68.7737 1.07422 68.7054 1.34766 68.6917 1.70312V16.7695C68.7191 17.3984 68.8831 17.7539 69.1702 17.8496L69.3206 17.8906V18.0684ZM81.3092 18.0137H78.028V17.8359L78.1783 17.8086C78.2877 17.7676 78.3971 17.6582 78.4791 17.4941C78.5885 17.2891 78.6432 16.9883 78.6705 16.5781V9.33203L73.3795 1.75781C72.8873 1.18359 72.4362 0.841797 72.0533 0.705078L71.8619 0.650391V0.458984H75.608V0.650391H75.5807C75.485 0.650391 75.444 0.732422 75.444 0.882812C75.444 0.992188 75.485 1.11523 75.567 1.2793C75.649 1.44336 77.2213 3.72656 80.2975 8.12891L85.11 1.67578C85.2467 1.44336 85.3424 1.26562 85.3971 1.15625C85.4518 1.04688 85.4791 0.9375 85.4791 0.828125C85.4791 0.732422 85.4518 0.677734 85.3971 0.650391H85.3561V0.458984H87.4889V0.650391L87.2701 0.705078C86.8463 0.841797 86.3815 1.19727 85.8756 1.78516L80.6666 8.79883V16.5781C80.6803 16.9883 80.7487 17.2891 80.858 17.4941C80.9401 17.6719 81.0494 17.7812 81.1588 17.8086L81.3092 17.8359V18.0137ZM95.499 18.0273C93.1064 18.0273 91.165 17.1797 89.6748 15.4707C88.1709 13.7754 87.4326 11.6836 87.4326 9.19531C87.4326 6.73438 88.1709 4.64258 89.6748 2.93359C91.165 1.23828 93.1064 0.376953 95.499 0.376953C97.8779 0.376953 99.8193 1.23828 101.31 2.93359C102.8 4.64258 103.552 6.73438 103.552 9.19531C103.552 11.6836 102.8 13.7754 101.31 15.4707C99.8193 17.1797 97.8779 18.0273 95.499 18.0273ZM95.499 17.3984C97.2763 17.3984 98.7392 16.6328 99.8603 15.1016C100.981 13.5703 101.542 11.6016 101.542 9.19531C101.542 6.73438 100.954 4.75195 99.7783 3.27539C98.6025 1.79883 97.1806 1.04688 95.499 1.04688C93.7763 1.04688 92.3271 1.8125 91.1787 3.31641C90.0166 4.82031 89.4423 6.78906 89.4423 9.20898C89.4423 11.5879 89.9755 13.543 91.0693 15.0879C92.163 16.6328 93.6396 17.3984 95.499 17.3984Z" fill="#073D3D"/>
<path d="M7.39359 18.0547V18.2047L7.3957 18.2047L7.39359 18.0547ZM0.434601 14.9922L0.341067 14.8749L0.239605 14.9558L0.305106 15.0679L0.434601 14.9922ZM1.58304 14.0762L1.7093 13.9952L1.61952 13.8552L1.4895 13.9589L1.58304 14.0762ZM4.19437 16.6738L4.26302 16.5404L4.26145 16.5397L4.19437 16.6738ZM7.3389 17.3848L7.38633 17.2425L7.36324 17.2348H7.3389V17.3848ZM7.37991 17.3984L7.33248 17.5407L7.35557 17.5484H7.37991V17.3984ZM10.9619 16.2227L10.8525 16.1201L10.851 16.1218L10.9619 16.2227ZM9.06155 11.2188L9.13253 11.0866L9.1306 11.0856L9.06155 11.2188ZM6.64163 10.0566L6.70178 9.91916L6.69795 9.91761L6.64163 10.0566ZM3.46976 8.53906L3.39253 8.66777L3.3972 8.67035L3.46976 8.53906ZM3.33304 8.45703L3.41038 8.32812L3.40149 8.32356L3.33304 8.45703ZM0.926788 6.36523L1.05376 6.28536L1.05319 6.28448L0.926788 6.36523ZM2.32132 1.55273L2.40578 1.6767L2.4063 1.67634L2.32132 1.55273ZM6.86038 0.335938V0.185877L6.85613 0.185998L6.86038 0.335938ZM10.8662 1.25195L10.9395 1.12107L10.9385 1.12052L10.8662 1.25195ZM13.1358 3.41211L13.2293 3.52938L13.3291 3.4498L13.2665 3.33857L13.1358 3.41211ZM11.9873 4.32812L11.8506 4.38976L11.9299 4.56579L12.0809 4.44539L11.9873 4.32812ZM10.0049 1.94922L10.0903 1.82589L10.0894 1.82528L10.0049 1.94922ZM6.91507 1.01953H6.76507V1.16953H6.91507V1.01953ZM6.91507 1.00586H7.06507V0.855859H6.91507V1.00586ZM7.81741 8.45703L7.87834 8.31996L7.87722 8.31947L7.81741 8.45703ZM11.8643 10.6309L11.9594 10.5148L11.9564 10.5125L11.8643 10.6309ZM11.9463 16.7969L12.0354 16.9176L12.0361 16.9171L11.9463 16.7969ZM7.39359 17.9047H7.37991V18.2047H7.39359V17.9047ZM7.37991 17.9047C5.77166 17.9047 4.358 17.6074 3.13613 17.0435L3.01041 17.3159C4.27682 17.9004 5.73426 18.2047 7.37991 18.2047V17.9047ZM3.13613 17.0435C1.91069 16.4779 1.06371 15.7711 0.564095 14.9165L0.305106 15.0679C0.844557 15.9906 1.74758 16.733 3.01041 17.3159L3.13613 17.0435ZM0.528135 15.1095L1.67657 14.1934L1.4895 13.9589L0.341067 14.8749L0.528135 15.1095ZM1.45677 14.1571C2.27171 15.4279 3.16481 16.3268 4.12728 16.808L4.26145 16.5397C3.36455 16.0912 2.50765 15.2401 1.7093 13.9952L1.45677 14.1571ZM4.12572 16.8072C5.07945 17.2981 6.14261 17.5348 7.3389 17.5348V17.2348C6.18362 17.2348 5.16866 17.0066 4.26301 16.5405L4.12572 16.8072ZM7.29146 17.5271L7.33248 17.5407L7.42735 17.2561L7.38633 17.2425L7.29146 17.5271ZM7.37991 17.5484C8.10218 17.5484 8.79862 17.4651 9.44121 17.2975L9.36549 17.0072C8.75027 17.1677 8.07952 17.2484 7.37991 17.2484V17.5484ZM9.44121 17.2975C10.0973 17.1263 10.6426 16.797 11.0729 16.3236L10.851 16.1218C10.461 16.5507 9.96719 16.8502 9.36549 17.0072L9.44121 17.2975ZM11.0714 16.3252C11.5167 15.8502 11.7272 15.1649 11.7272 14.2949H11.4272C11.4272 15.1203 11.2275 15.7201 10.8525 16.1201L11.0714 16.3252ZM11.7272 14.2949C11.7272 13.5726 11.4798 12.9616 10.989 12.4419L10.7709 12.6479C11.2097 13.1126 11.4272 13.6501 11.4272 14.2949H11.7272ZM10.989 12.4419C10.5097 11.9345 9.87991 11.488 9.13252 11.0866L8.99058 11.3509C9.71976 11.7425 10.3204 12.171 10.7709 12.6479L10.989 12.4419ZM9.1306 11.0856C8.39027 10.7017 7.58056 10.3037 6.70175 9.91922L6.58151 10.1941C7.4527 10.5752 8.25628 10.9702 8.99251 11.3519L9.1306 11.0856ZM6.69795 9.91761C5.62376 9.4825 4.57644 8.97927 3.54231 8.40778L3.3972 8.67035C4.4412 9.24729 5.49934 9.75578 6.58532 10.1957L6.69795 9.91761ZM3.54693 8.41044L3.41021 8.32841L3.25586 8.58566L3.39258 8.66769L3.54693 8.41044ZM3.40149 8.32356C2.35388 7.78633 1.56982 7.10577 1.05376 6.28537L0.799819 6.4451C1.35017 7.32001 2.17938 8.03399 3.26459 8.5905L3.40149 8.32356ZM1.05319 6.28448C0.756882 5.82069 0.611945 5.27575 0.611945 4.61523H0.311945C0.311945 5.3219 0.467788 5.92541 0.800384 6.44599L1.05319 6.28448ZM0.611945 4.61523C0.611945 3.47442 1.1909 2.50441 2.40578 1.6767L2.23686 1.42877C0.963453 2.29637 0.311945 3.3498 0.311945 4.61523H0.611945ZM2.4063 1.67634C3.46797 0.946443 4.95378 0.540086 6.86464 0.485877L6.85613 0.185998C4.91152 0.241164 3.36217 0.655119 2.23634 1.42913L2.4063 1.67634ZM6.86038 0.485938H6.91507V0.185937H6.86038V0.485938ZM6.91507 0.485938C8.4394 0.485938 9.72612 0.796079 10.794 1.38339L10.9385 1.12052C9.81886 0.504702 8.48058 0.185937 6.91507 0.185937V0.485938ZM10.793 1.38283C11.7989 1.94618 12.5288 2.63893 13.005 3.48565L13.2665 3.33857C12.7584 2.43529 11.9843 1.70616 10.9395 1.12108L10.793 1.38283ZM13.0422 3.29484L11.8938 4.21086L12.0809 4.44539L13.2293 3.52938L13.0422 3.29484ZM12.1241 4.26649C11.6754 3.27102 11.0015 2.45669 10.0903 1.82589L9.91953 2.07255C10.7857 2.67221 11.4242 3.44382 11.8506 4.38976L12.1241 4.26649ZM10.0894 1.82528C9.1612 1.19241 8.10614 0.869531 6.91507 0.869531V1.16953C8.04822 1.16953 9.04394 1.47556 9.92041 2.07315L10.0894 1.82528ZM7.06507 1.01953V1.00586H6.76507V1.01953H7.06507ZM6.91507 0.855859H6.9014V1.15586H6.91507V0.855859ZM6.9014 0.855859C5.41096 0.855859 4.26613 1.12763 3.49076 1.69301C2.70662 2.26477 2.32171 3.12082 2.32171 4.23242H2.62171C2.62171 3.19754 2.97508 2.4403 3.66751 1.93541C4.36869 1.42413 5.43871 1.15586 6.9014 1.15586V0.855859ZM2.32171 4.23242C2.32171 4.88026 2.58865 5.46516 3.12058 5.96835L3.32674 5.7504C2.84696 5.29656 2.62171 4.78771 2.62171 4.23242H2.32171ZM3.12058 5.96835C3.63893 6.45867 4.30737 6.91732 5.12264 7.34568L5.26218 7.0801C4.46417 6.66081 3.82012 6.21711 3.32674 5.7504L3.12058 5.96835ZM5.12264 7.34568C5.93343 7.77169 6.81194 8.18343 7.7576 8.59459L7.87722 8.31947C6.93617 7.91032 6.06467 7.50175 5.26218 7.0801L5.12264 7.34568ZM7.75649 8.5941C9.7242 9.46864 11.0494 10.1871 11.7722 10.7493L11.9564 10.5125C11.2026 9.92616 9.84813 9.19542 7.87833 8.31996L7.75649 8.5941ZM11.7692 10.7469C12.8725 11.6508 13.4233 12.7581 13.4233 14.0762H13.7233C13.7233 12.6599 13.1256 11.4703 11.9594 10.5148L11.7692 10.7469ZM13.4233 14.0762C13.4233 15.0249 12.9133 15.8875 11.8566 16.6767L12.0361 16.9171C13.1395 16.093 13.7233 15.1509 13.7233 14.0762H13.4233ZM11.8573 16.6762C10.7972 17.458 9.31398 17.8776 7.39147 17.9047L7.3957 18.2047C9.356 18.1771 10.908 17.749 12.0354 16.9176L11.8573 16.6762ZM23.4701 18.0547V18.2047H23.6201V18.0547H23.4701ZM20.1888 18.0547H20.0388V18.2047H20.1888V18.0547ZM20.1888 17.877L20.1493 17.7322L20.0388 17.7624V17.877H20.1888ZM20.3392 17.8359L20.3788 17.9811L20.3905 17.9769L20.3392 17.8359ZM20.8177 16.6328L20.9677 16.6388V16.6328H20.8177ZM20.8177 1.00586H20.9677V0.855859H20.8177V1.00586ZM14.9935 1.93555L14.8449 1.91522L15.1314 1.99463L14.9935 1.93555ZM15.2122 0.335938V0.185937H15.0814L15.0636 0.315614L15.2122 0.335938ZM28.4466 0.335938L28.5952 0.315614L28.5775 0.185937H28.4466V0.335938ZM28.6654 1.93555L28.5312 2.00263L28.814 1.91522L28.6654 1.93555ZM22.8275 1.00586V0.855859H22.6775V1.00586H22.8275ZM22.8275 16.6328H22.6774L22.6776 16.6388L22.8275 16.6328ZM23.306 17.8359L23.2547 17.9769L23.2621 17.9796L23.2696 17.9815L23.306 17.8359ZM23.4701 17.877H23.6201V17.7598L23.5064 17.7314L23.4701 17.877ZM23.4701 17.9047H20.1888V18.2047H23.4701V17.9047ZM20.3388 18.0547V17.877H20.0388V18.0547H20.3388ZM20.2283 18.0217L20.3787 17.9807L20.2997 17.6912L20.1493 17.7322L20.2283 18.0217ZM20.3905 17.9769C20.5956 17.9023 20.7329 17.7295 20.8208 17.5042C20.9081 17.2802 20.9536 16.9878 20.9676 16.6388L20.6678 16.6268C20.6545 16.9614 20.6112 17.2159 20.5412 17.3952C20.4719 17.5732 20.3836 17.6602 20.2879 17.695L20.3905 17.9769ZM20.9677 16.6328V1.00586H20.6677V16.6328H20.9677ZM20.8177 0.855859H16.8939V1.15586H20.8177V0.855859ZM16.8939 0.855859C16.2418 0.855859 15.7473 0.965376 15.433 1.21685L15.6204 1.45111C15.8529 1.26509 16.2609 1.15586 16.8939 1.15586V0.855859ZM15.433 1.21685C15.1553 1.43901 14.9529 1.64958 14.8556 1.87646L15.1314 1.99463C15.1982 1.8387 15.3512 1.66646 15.6204 1.45111L15.433 1.21685ZM15.1421 1.95587L15.3609 0.356261L15.0636 0.315614L14.8449 1.91522L15.1421 1.95587ZM15.2122 0.485938H28.4466V0.185937H15.2122V0.485938ZM28.298 0.356261L28.5168 1.95587L28.814 1.91522L28.5952 0.315614L28.298 0.356261ZM28.7995 1.86846C28.6894 1.64809 28.4916 1.44036 28.2122 1.21685L28.0248 1.45111C28.2923 1.66511 28.45 1.84019 28.5312 2.00263L28.7995 1.86846ZM28.2122 1.21685C27.8981 0.965538 27.4039 0.855859 26.765 0.855859V1.15586C27.3839 1.15586 27.7921 1.26493 28.0248 1.45111L28.2122 1.21685ZM26.765 0.855859H22.8275V1.15586H26.765V0.855859ZM22.6775 1.00586V16.6328H22.9775V1.00586H22.6775ZM22.6776 16.6388C22.6916 16.9878 22.7371 17.2802 22.8244 17.5042C22.9123 17.7295 23.0496 17.9023 23.2547 17.9769L23.3573 17.695C23.2616 17.6602 23.1733 17.5732 23.104 17.3952C23.034 17.2159 22.9907 16.9614 22.9774 16.6268L22.6776 16.6388ZM23.2696 17.9815L23.4337 18.0225L23.5064 17.7314L23.3424 17.6904L23.2696 17.9815ZM23.3201 17.877V18.0547H23.6201V17.877H23.3201ZM38.8903 18.082L38.8838 18.232H38.8903V18.082ZM32.2458 1.79883H32.3962L32.3953 1.78732L32.2458 1.79883ZM32.0544 0.923828L32.1886 0.856703L32.1861 0.852L32.0544 0.923828ZM31.7536 0.623047L31.8207 0.488883L31.8074 0.48224L31.7931 0.478332L31.7536 0.623047ZM31.6032 0.582031H31.4532V0.696601L31.5637 0.726746L31.6032 0.582031ZM31.6032 0.417969V0.267969H31.4532V0.417969H31.6032ZM34.8708 0.417969H35.0208V0.267969H34.8708V0.417969ZM34.8708 0.582031L34.9102 0.726746L35.0208 0.696601V0.582031H34.8708ZM34.7204 0.623047L34.6809 0.478332L34.6699 0.481337L34.6595 0.485975L34.7204 0.623047ZM34.4333 0.896484L34.5642 0.970111L34.5674 0.963566L34.4333 0.896484ZM34.3786 12.5723L34.5281 12.5598L34.5279 12.5578L34.3786 12.5723ZM35.1852 15.1016L35.0593 15.1831L35.0613 15.1861L35.1852 15.1016ZM39.1501 17.3164L39.1452 17.4664H39.1501V17.3164ZM42.1989 16.7695L42.2702 16.9015L42.2705 16.9013L42.1989 16.7695ZM43.5934 15.5938L43.7171 15.6788L43.7189 15.6759L43.5934 15.5938ZM44.7282 1.78516H44.8783L44.8781 1.77939L44.7282 1.78516ZM44.5368 0.910156L44.671 0.843031L44.6685 0.838328L44.5368 0.910156ZM44.2497 0.609375L44.3168 0.475211L44.2976 0.465628L44.2765 0.461795L44.2497 0.609375ZM44.0993 0.582031H43.9493V0.707218L44.0725 0.729612L44.0993 0.582031ZM44.0993 0.404297V0.254297H43.9493V0.404297H44.0993ZM46.0407 0.404297H46.1907V0.254297H46.0407V0.404297ZM46.0407 0.582031V0.732031H46.1907V0.582031H46.0407ZM45.5895 0.910156L45.7174 0.988832L45.7203 0.983695L45.5895 0.910156ZM45.3981 1.77148L45.2481 1.76114L45.2481 1.77169L45.3981 1.77148ZM45.4118 11.8477L45.5618 11.8477L45.5618 11.8475L45.4118 11.8477ZM40.4079 18.0547L40.4194 18.2043L40.4237 18.2039L40.4079 18.0547ZM39.3825 17.932H38.8903V18.232H39.3825V17.932ZM38.8968 17.9322C36.7131 17.8378 35.0975 17.1155 34.0238 15.78C32.9463 14.4398 32.3958 12.459 32.3958 9.81055H32.0958C32.0958 12.4942 32.6527 14.5534 33.79 15.968C34.9312 17.3874 36.6378 18.1348 38.8838 18.2319L38.8968 17.9322ZM32.3958 9.81055V1.79883H32.0958V9.81055H32.3958ZM32.3953 1.78732C32.3677 1.4276 32.3115 1.10259 32.1885 0.856746L31.9202 0.99091C32.016 1.18257 32.0692 1.45912 32.0962 1.81033L32.3953 1.78732ZM32.1861 0.852C32.0894 0.674889 31.9576 0.557351 31.8207 0.488883L31.6865 0.757211C31.7683 0.798118 31.8552 0.871986 31.9227 0.995656L32.1861 0.852ZM31.7931 0.478332L31.6427 0.437317L31.5637 0.726746L31.7141 0.767761L31.7931 0.478332ZM31.7532 0.582031V0.417969H31.4532V0.582031H31.7532ZM31.6032 0.567969H34.8708V0.267969H31.6032V0.567969ZM34.7208 0.417969V0.582031H35.0208V0.417969H34.7208ZM34.8313 0.437317L34.6809 0.478332L34.7599 0.767761L34.9102 0.726746L34.8313 0.437317ZM34.6595 0.485975C34.5075 0.553533 34.3844 0.658901 34.2991 0.829402L34.5674 0.963566C34.6189 0.860631 34.6872 0.801936 34.7813 0.760119L34.6595 0.485975ZM34.3025 0.822945C34.1655 1.06665 34.0919 1.35227 34.0919 1.68945H34.3919C34.3919 1.39773 34.455 1.16382 34.564 0.970024L34.3025 0.822945ZM34.0919 1.68945V9.23633H34.3919V1.68945H34.0919ZM34.0919 9.23633C34.0919 10.4835 34.133 11.596 34.2293 12.5868L34.5279 12.5578C34.4328 11.5797 34.3919 10.4775 34.3919 9.23633H34.0919ZM34.2291 12.5847C34.3128 13.5896 34.5926 14.4619 35.0593 15.1831L35.3112 15.0201C34.8755 14.3467 34.6084 13.5237 34.5281 12.5598L34.2291 12.5847ZM35.0613 15.1861C36.0582 16.6462 37.4279 17.41 39.1452 17.4663L39.155 17.1665C37.5363 17.1134 36.2537 16.4006 35.3091 15.017L35.0613 15.1861ZM39.1501 17.4664H39.1637V17.1664H39.1501V17.4664ZM39.1637 17.4664C40.5119 17.4664 41.5537 17.2884 42.2702 16.9015L42.1276 16.6375C41.4769 16.9889 40.4952 17.1664 39.1637 17.1664V17.4664ZM42.2705 16.9013C42.9142 16.5515 43.3995 16.1407 43.717 15.6787L43.4698 15.5088C43.1858 15.9218 42.7414 16.304 42.1273 16.6377L42.2705 16.9013ZM43.7189 15.6759C44.4862 14.504 44.8782 13.2315 44.8782 11.8477H44.5782C44.5782 13.1709 44.2045 14.3866 43.4679 15.5116L43.7189 15.6759ZM44.8782 11.8477V1.78516H44.5782V11.8477H44.8782ZM44.8781 1.77939C44.8639 1.41 44.7927 1.08658 44.671 0.843074L44.4026 0.977238C44.4996 1.17123 44.5652 1.44937 44.5783 1.79092L44.8781 1.77939ZM44.6685 0.838328C44.5755 0.66793 44.4598 0.546725 44.3168 0.475211L44.1826 0.743539C44.2583 0.7814 44.334 0.851602 44.4051 0.981984L44.6685 0.838328ZM44.2765 0.461795L44.1261 0.434451L44.0725 0.729612L44.2228 0.756955L44.2765 0.461795ZM44.2493 0.582031V0.404297H43.9493V0.582031H44.2493ZM44.0993 0.554297H46.0407V0.254297H44.0993V0.554297ZM45.8907 0.404297V0.582031H46.1907V0.404297H45.8907ZM46.0407 0.432031H45.9997V0.732031H46.0407V0.432031ZM45.9997 0.432031C45.7657 0.432031 45.5899 0.603572 45.4588 0.836617L45.7203 0.983695C45.8353 0.779241 45.9329 0.732031 45.9997 0.732031V0.432031ZM45.4618 0.831542C45.3312 1.0438 45.2758 1.36492 45.2485 1.76116L45.5478 1.7818C45.5751 1.38508 45.6291 1.13198 45.7173 0.988771L45.4618 0.831542ZM45.2481 1.77169L45.2618 11.8479L45.5618 11.8475L45.5481 1.77128L45.2481 1.77169ZM45.2618 11.8477C45.2618 13.1151 45.0326 14.1699 44.5816 15.032L44.8474 15.1711C45.3262 14.2559 45.5618 13.1506 45.5618 11.8477H45.2618ZM44.5816 15.032C44.1278 15.8997 43.5293 16.5633 42.8003 17.0405L42.9646 17.2915C43.7395 16.7843 44.3716 16.0808 44.8474 15.1711L44.5816 15.032ZM42.8003 17.0405C42.0676 17.5201 41.27 17.8124 40.3921 17.9055L40.4237 18.2039C41.3505 18.1056 42.1934 17.7963 42.9646 17.2915L42.8003 17.0405ZM40.3964 17.9051C40.0475 17.932 39.7113 17.932 39.3825 17.932V18.232C39.7099 18.232 40.0573 18.2321 40.4194 18.2042L40.3964 17.9051ZM59.6289 1.55273L59.7121 1.42792L59.7111 1.42727L59.6289 1.55273ZM62.2676 4.72461L62.4055 4.66552L62.4052 4.66501L62.2676 4.72461ZM62.2129 13.6797L62.3492 13.7423L62.3495 13.7417L62.2129 13.6797ZM59.4922 16.8516L59.4106 16.7257L59.4096 16.7263L59.4922 16.8516ZM48.8965 18.0273H48.7465V18.1773H48.8965V18.0273ZM48.8965 17.8496V17.6996H48.7465V17.8496H48.8965ZM49.0605 17.8223L49.0131 17.68L49.003 17.6833L48.9935 17.6881L49.0605 17.8223ZM49.3477 17.5078L49.2226 17.4244L49.2174 17.4334L49.3477 17.5078ZM49.5391 16.5918L49.6891 16.6012V16.5918H49.5391ZM49.5391 1.8125H49.6894L49.6888 1.80314L49.5391 1.8125ZM49.3477 0.896484L49.4782 0.821887L49.4725 0.813279L49.3477 0.896484ZM49.0605 0.582031L49.1438 0.457224L49.1221 0.442811L49.0969 0.43651L49.0605 0.582031ZM48.8965 0.554688H48.7465V0.704688H48.8965V0.554688ZM48.8965 0.376953V0.226953H48.7465V0.376953H48.8965ZM58.2891 16.3457L58.21 16.2182L58.2096 16.2185L58.2891 16.3457ZM60.5176 13.502L60.6599 13.5494L60.6603 13.548L60.5176 13.502ZM60.5859 4.90234L60.73 4.86071L60.7299 4.86028L60.5859 4.90234ZM58.4531 2.05859L58.5341 1.93231L58.5329 1.93158L58.4531 2.05859ZM51.5488 1.04688V0.896875H51.3988V1.04688H51.5488ZM51.5488 17.3574H51.3988V17.5074H51.5488V17.3574ZM55.0488 0.526953C56.8875 0.526953 58.3879 0.919 59.5467 1.6782L59.7111 1.42727C58.491 0.627875 56.9289 0.226953 55.0488 0.226953V0.526953ZM59.5457 1.67754C60.7108 2.45425 61.567 3.4842 62.1299 4.78421L62.4052 4.66501C61.8197 3.31268 60.9259 2.23715 59.7121 1.42793L59.5457 1.67754ZM62.1297 4.7837C62.6949 6.10259 62.9789 7.57236 62.9789 9.20898H63.2789C63.2789 7.53701 62.9886 6.02632 62.4054 4.66552L62.1297 4.7837ZM62.9789 9.20898C62.9789 10.8439 62.6682 12.3127 62.0763 13.6177L62.3495 13.7417C62.9607 12.3943 63.2789 10.8827 63.2789 9.20898H62.9789ZM62.0766 13.6171C61.4728 14.9319 60.5891 15.9623 59.4106 16.7257L59.5737 16.9775C60.8015 16.1822 61.7225 15.1072 62.3492 13.7423L62.0766 13.6171ZM59.4096 16.7263C58.2366 17.4995 56.7906 17.8773 55.0488 17.8773V18.1773C56.8344 18.1773 58.3415 17.7896 59.5747 16.9768L59.4096 16.7263ZM55.0488 17.8773H50.6465V18.1773H55.0488V17.8773ZM50.6465 17.8773H49.5391V18.1773H50.6465V17.8773ZM49.5391 17.8773H48.8965V18.1773H49.5391V17.8773ZM49.0465 18.0273V17.8496H48.7465V18.0273H49.0465ZM48.8965 17.9996H48.9375V17.6996H48.8965V17.9996ZM48.9375 17.9996C48.9725 17.9996 49.0416 17.9994 49.1276 17.9564L48.9935 17.6881C48.9801 17.6948 48.9706 17.6972 48.9641 17.6982C48.9569 17.6994 48.9507 17.6996 48.9375 17.6996V17.9996ZM49.108 17.9646C49.1801 17.9405 49.2406 17.8954 49.3033 17.8326L49.0912 17.6205C49.0446 17.6671 49.023 17.6767 49.0131 17.68L49.108 17.9646ZM49.3033 17.8326C49.3744 17.7615 49.4246 17.6756 49.4779 17.5822L49.2174 17.4334C49.1614 17.5315 49.1295 17.5822 49.0912 17.6205L49.3033 17.8326ZM49.4725 17.591C49.5438 17.484 49.5895 17.3375 49.6183 17.1792L49.3231 17.1255C49.2972 17.2679 49.2609 17.3675 49.2228 17.4246L49.4725 17.591ZM49.6183 17.1792C49.6465 17.0241 49.6747 16.8268 49.6888 16.6012L49.3894 16.5824C49.3761 16.7943 49.3496 16.9798 49.3231 17.1255L49.6183 17.1792ZM49.6891 16.5918V16.5098H49.3891V16.5918H49.6891ZM49.6891 16.5098V1.89453H49.3891V16.5098H49.6891ZM49.6891 1.89453V1.8125H49.3891V1.89453H49.6891ZM49.6888 1.80314C49.6746 1.57667 49.6463 1.39278 49.6183 1.23879L49.3231 1.29246C49.3498 1.43925 49.3762 1.61083 49.3894 1.82186L49.6888 1.80314ZM49.6183 1.23879C49.589 1.07766 49.5436 0.937024 49.4779 0.822064L49.2174 0.970905C49.2611 1.04735 49.2977 1.15281 49.3231 1.29246L49.6183 1.23879ZM49.4725 0.813279C49.424 0.740593 49.3717 0.653659 49.3033 0.58534L49.0912 0.797472C49.1323 0.838529 49.1619 0.888313 49.2228 0.979689L49.4725 0.813279ZM49.3033 0.58534C49.2379 0.519952 49.187 0.48605 49.1438 0.457224L48.9773 0.706839C49.0161 0.7327 49.0472 0.753485 49.0912 0.797472L49.3033 0.58534ZM49.0969 0.43651C49.0846 0.433425 49.0728 0.430296 49.0609 0.427099C49.0494 0.424027 49.0369 0.420651 49.0251 0.417711C49.0047 0.4126 48.9716 0.404687 48.9375 0.404687V0.704688C48.9326 0.704688 48.931 0.704138 48.9347 0.704792C48.9382 0.705399 48.9437 0.706571 48.9524 0.708754C48.9611 0.710941 48.9708 0.713546 48.9833 0.716883C48.9953 0.720095 49.0092 0.723801 49.0242 0.727553L49.0969 0.43651ZM48.9375 0.404687H48.8965V0.704688H48.9375V0.404687ZM49.0465 0.554688V0.376953H48.7465V0.554688H49.0465ZM48.8965 0.526953H49.5391V0.226953H48.8965V0.526953ZM49.5391 0.526953H50.5371V0.226953H49.5391V0.526953ZM50.5371 0.526953H55.0488V0.226953H50.5371V0.526953ZM53.6133 17.5074C55.6491 17.5074 57.2405 17.178 58.3686 16.4729L58.2096 16.2185C57.1502 16.8806 55.6243 17.2074 53.6133 17.2074V17.5074ZM58.3681 16.4732C59.4787 15.7843 60.2389 14.8123 60.6599 13.5494L60.3753 13.4545C59.9759 14.6526 59.2595 15.5672 58.21 16.2182L58.3681 16.4732ZM60.6603 13.548C61.0625 12.2998 61.2691 10.8619 61.2691 9.20898H60.9691C60.9691 10.8373 60.7656 12.2432 60.3748 13.4559L60.6603 13.548ZM61.2691 9.20898C61.2691 7.55801 61.0903 6.10789 60.73 4.86071L60.4418 4.94397C60.7925 6.15774 60.9691 7.57871 60.9691 9.20898H61.2691ZM60.7299 4.86028C60.3642 3.6084 59.6307 2.63527 58.5341 1.93231L58.3722 2.18488C59.4084 2.84911 60.0967 3.7627 60.442 4.94441L60.7299 4.86028ZM58.5329 1.93158C57.4319 1.23989 55.8265 0.896875 53.709 0.896875V1.19688C55.8024 1.19688 57.3416 1.53745 58.3733 2.18561L58.5329 1.93158ZM53.709 0.896875H51.5488V1.19688H53.709V0.896875ZM51.3988 1.04688V17.3574H51.6988V1.04688H51.3988ZM51.5488 17.5074H53.6133V17.2074H51.5488V17.5074ZM69.3206 18.0684V18.2184H69.4706V18.0684H69.3206ZM66.053 18.0684H65.903V18.2184H66.053V18.0684ZM66.053 17.8906L66.0099 17.747L65.903 17.779V17.8906H66.053ZM66.1898 17.8496L66.233 17.9939L66.2455 17.9889L66.1898 17.8496ZM66.6819 16.7695L66.8319 16.7829V16.7695H66.6819ZM66.6819 1.70312H66.8325L66.8314 1.68984L66.6819 1.70312ZM66.1898 0.609375L66.2455 0.470103L66.2327 0.464989L66.2192 0.462288L66.1898 0.609375ZM66.053 0.582031H65.903V0.705002L66.0236 0.729118L66.053 0.582031ZM66.053 0.404297V0.254297H65.903V0.404297H66.053ZM69.3206 0.404297H69.4706V0.254297H69.3206V0.404297ZM69.3206 0.582031V0.732031H69.4706V0.582031H69.3206ZM69.2796 0.582031V0.431511L69.2671 0.432549L69.2796 0.582031ZM68.6917 1.70312L68.5417 1.69736V1.70312H68.6917ZM68.6917 16.7695H68.5416L68.5419 16.776L68.6917 16.7695ZM69.1702 17.8496L69.1227 17.9921L69.1308 17.9943L69.1702 17.8496ZM69.3206 17.8906H69.4706V17.7761L69.3601 17.7459L69.3206 17.8906ZM69.3206 17.9184H66.053V18.2184H69.3206V17.9184ZM66.203 18.0684V17.8906H65.903V18.0684H66.203ZM66.0961 18.0343L66.2329 17.9933L66.1467 17.7059L66.0099 17.747L66.0961 18.0343ZM66.2455 17.9889C66.4284 17.9157 66.5616 17.7643 66.6543 17.5616C66.7462 17.3605 66.8032 17.099 66.8314 16.7828L66.5325 16.7563C66.506 17.0553 66.4536 17.2791 66.3815 17.4369C66.3101 17.5931 66.2245 17.6741 66.134 17.7103L66.2455 17.9889ZM66.8319 16.7695V1.70312H66.5319V16.7695H66.8319ZM66.8314 1.68984C66.8033 1.37368 66.7463 1.10921 66.6547 0.905158C66.5628 0.700279 66.43 0.543931 66.2455 0.470103L66.134 0.748647C66.2229 0.784194 66.3089 0.867104 66.381 1.02795C66.4535 1.18961 66.506 1.41733 66.5325 1.71641L66.8314 1.68984ZM66.2192 0.462288L66.0825 0.434944L66.0236 0.729118L66.1603 0.756462L66.2192 0.462288ZM66.203 0.582031V0.404297H65.903V0.582031H66.203ZM66.053 0.554297H69.3206V0.254297H66.053V0.554297ZM69.1706 0.404297V0.582031H69.4706V0.404297H69.1706ZM69.3206 0.432031H69.2796V0.732031H69.3206V0.432031ZM69.2671 0.432549C69.0364 0.451779 68.8765 0.591984 68.7529 0.808392L69.0134 0.957233C69.1084 0.790829 69.1947 0.739627 69.2921 0.731513L69.2671 0.432549ZM68.7529 0.808392C68.6273 1.02816 68.556 1.32801 68.5418 1.69736L68.8416 1.70889C68.8547 1.3673 68.9202 1.12028 69.0134 0.957233L68.7529 0.808392ZM68.5417 1.70312V16.7695H68.8417V1.70312H68.5417ZM68.5419 16.776C68.5559 17.0999 68.6055 17.3671 68.6966 17.5708C68.7891 17.7773 68.929 17.9273 69.1228 17.9919L69.2177 17.7073C69.1243 17.6762 69.0387 17.6006 68.9705 17.4482C68.901 17.293 68.8548 17.0681 68.8416 16.763L68.5419 16.776ZM69.1308 17.9943L69.2812 18.0353L69.3601 17.7459L69.2097 17.7049L69.1308 17.9943ZM69.1706 17.8906V18.0684H69.4706V17.8906H69.1706ZM81.3092 18.0137V18.1637H81.4592V18.0137H81.3092ZM78.028 18.0137H77.878V18.1637H78.028V18.0137ZM78.028 17.8359L78.0011 17.6884L77.878 17.7108V17.8359H78.028ZM78.1783 17.8086L78.2052 17.9562L78.2184 17.9538L78.231 17.949L78.1783 17.8086ZM78.4791 17.4941L78.3467 17.4235L78.345 17.4271L78.4791 17.4941ZM78.6705 16.5781L78.8205 16.5881V16.5781H78.6705ZM78.6705 9.33203H78.8205V9.28483L78.7935 9.24613L78.6705 9.33203ZM73.3795 1.75781L73.5025 1.67191L73.4982 1.66583L73.4934 1.66019L73.3795 1.75781ZM72.0533 0.705078L72.1039 0.56352L72.0946 0.56085L72.0533 0.705078ZM71.8619 0.650391H71.7119V0.763536L71.8207 0.794619L71.8619 0.650391ZM71.8619 0.458984V0.308984H71.7119V0.458984H71.8619ZM75.608 0.458984H75.758V0.308984H75.608V0.458984ZM75.608 0.650391V0.800391H75.758V0.650391H75.608ZM80.2975 8.12891L80.1745 8.21482L80.2935 8.38512L80.4177 8.21858L80.2975 8.12891ZM85.11 1.67578L85.2302 1.76545L85.2351 1.75889L85.2393 1.75183L85.11 1.67578ZM85.3971 0.650391L85.4642 0.516227L85.4325 0.500391H85.3971V0.650391ZM85.3561 0.650391H85.2061V0.800391H85.3561V0.650391ZM85.3561 0.458984V0.308984H85.2061V0.458984H85.3561ZM87.4889 0.458984H87.6389V0.308984H87.4889V0.458984ZM87.4889 0.650391L87.5253 0.795912L87.6389 0.767507V0.650391H87.4889ZM87.2701 0.705078L87.2337 0.559229L87.2241 0.562322L87.2701 0.705078ZM85.8756 1.78516L85.7616 1.68707L85.7552 1.69572L85.8756 1.78516ZM80.6666 8.79883L80.5462 8.70939L80.5166 8.74922V8.79883H80.6666ZM80.6666 16.5781H80.5165L80.5167 16.5831L80.6666 16.5781ZM80.858 17.4941L80.9945 17.4312L80.9904 17.4236L80.858 17.4941ZM81.1588 17.8086L81.1224 17.9544L81.132 17.9562L81.1588 17.8086ZM81.3092 17.8359H81.4592V17.7108L81.336 17.6884L81.3092 17.8359ZM81.3092 17.8637H78.028V18.1637H81.3092V17.8637ZM78.178 18.0137V17.8359H77.878V18.0137H78.178ZM78.0548 17.9835L78.2052 17.9562L78.1515 17.661L78.0011 17.6884L78.0548 17.9835ZM78.231 17.949C78.3885 17.89 78.5215 17.7448 78.6133 17.5612L78.345 17.4271C78.2727 17.5716 78.187 17.6452 78.1257 17.6681L78.231 17.949ZM78.6115 17.5647C78.737 17.3293 78.7927 17.0005 78.8202 16.5881L78.5209 16.5681C78.4937 16.9761 78.44 17.2488 78.3468 17.4236L78.6115 17.5647ZM78.8205 16.5781V9.33203H78.5205V16.5781H78.8205ZM78.7935 9.24613L73.5025 1.67191L73.2565 1.84371L78.5476 9.41793L78.7935 9.24613ZM73.4934 1.66019C72.9937 1.07716 72.522 0.713161 72.1038 0.563817L72.0029 0.846339C72.3504 0.970433 72.781 1.29003 73.2656 1.85543L73.4934 1.66019ZM72.0946 0.56085L71.9031 0.506162L71.8207 0.794619L72.0121 0.849307L72.0946 0.56085ZM72.0119 0.650391V0.458984H71.7119V0.650391H72.0119ZM71.8619 0.608984H75.608V0.308984H71.8619V0.608984ZM75.458 0.458984V0.650391H75.758V0.458984H75.458ZM75.608 0.500391H75.5807V0.800391H75.608V0.500391ZM75.5807 0.500391C75.5348 0.500391 75.4875 0.510413 75.4437 0.535817C75.3998 0.561261 75.368 0.597267 75.3459 0.636396C75.3044 0.709673 75.294 0.799223 75.294 0.882812H75.594C75.594 0.851566 75.5961 0.827798 75.5994 0.810364C75.6026 0.792634 75.6063 0.785219 75.607 0.784014C75.6071 0.783837 75.6035 0.789936 75.5942 0.795299C75.5851 0.800623 75.5787 0.800391 75.5807 0.800391V0.500391ZM75.294 0.882812C75.294 1.02829 75.3483 1.17722 75.4329 1.34638L75.7012 1.21221C75.6217 1.05325 75.594 0.956082 75.594 0.882812H75.294ZM75.4329 1.34638C75.448 1.37664 75.4875 1.43897 75.5422 1.52239C75.5997 1.61002 75.6803 1.73057 75.7839 1.88375C75.9913 2.19022 76.292 2.62901 76.686 3.19994C77.4741 4.34189 78.6364 6.01355 80.1745 8.21482L80.4204 8.04299C78.8824 5.84192 77.7205 4.1708 76.9329 3.02955C76.5391 2.45888 76.239 2.02096 76.0324 1.71562C75.9291 1.56289 75.8494 1.44375 75.7931 1.35792C75.765 1.31497 75.743 1.28087 75.727 1.25534C75.719 1.24256 75.7128 1.23238 75.7082 1.22458C75.7059 1.2207 75.7042 1.21768 75.7029 1.2154C75.7016 1.21302 75.7011 1.21207 75.7012 1.21221L75.4329 1.34638ZM80.4177 8.21858L85.2302 1.76545L84.9897 1.58611L80.1772 8.03923L80.4177 8.21858ZM85.2393 1.75183C85.3772 1.51729 85.4747 1.33649 85.5313 1.22333L85.2629 1.08917C85.2101 1.19476 85.1162 1.36943 84.9807 1.59973L85.2393 1.75183ZM85.5313 1.22333C85.5951 1.09561 85.6291 0.963415 85.6291 0.828125H85.3291C85.3291 0.911585 85.3084 0.998136 85.2629 1.08917L85.5313 1.22333ZM85.6291 0.828125C85.6291 0.767617 85.6207 0.705847 85.5943 0.649753C85.5662 0.589923 85.5213 0.544809 85.4642 0.516227L85.33 0.784555C85.3301 0.784607 85.3296 0.784373 85.3288 0.783755C85.3279 0.783126 85.3269 0.78227 85.3258 0.781206C85.3235 0.778856 85.3227 0.7771 85.3229 0.777493C85.3238 0.779505 85.3291 0.79293 85.3291 0.828125H85.6291ZM85.3971 0.500391H85.3561V0.800391H85.3971V0.500391ZM85.5061 0.650391V0.458984H85.2061V0.650391H85.5061ZM85.3561 0.608984H87.4889V0.308984H85.3561V0.608984ZM87.3389 0.458984V0.650391H87.6389V0.458984H87.3389ZM87.4525 0.504869L87.2338 0.559557L87.3065 0.8506L87.5253 0.795912L87.4525 0.504869ZM87.2241 0.562322C86.7617 0.711477 86.2749 1.09117 85.7619 1.68732L85.9893 1.88299C86.4881 1.30336 86.9309 0.972116 87.3162 0.847834L87.2241 0.562322ZM85.7552 1.69572L80.5462 8.70939L80.787 8.88826L85.996 1.87459L85.7552 1.69572ZM80.5166 8.79883V16.5781H80.8166V8.79883H80.5166ZM80.5167 16.5831C80.5308 17.0045 80.6011 17.3312 80.7257 17.5647L80.9904 17.4236C80.8962 17.247 80.8298 16.9721 80.8165 16.5731L80.5167 16.5831ZM80.7218 17.557C80.8115 17.7513 80.9481 17.9105 81.1224 17.9541L81.1952 17.6631C81.1508 17.652 81.0686 17.5924 80.9942 17.4313L80.7218 17.557ZM81.132 17.9562L81.2824 17.9835L81.336 17.6884L81.1856 17.661L81.132 17.9562ZM81.1592 17.8359V18.0137H81.4592V17.8359H81.1592ZM89.6748 15.4707L89.7878 15.3721L89.787 15.3712L89.6748 15.4707ZM89.6748 2.93359L89.7874 3.03269L89.7874 3.03263L89.6748 2.93359ZM101.31 2.93359L101.423 2.83501L101.422 2.83456L101.31 2.93359ZM101.31 15.4707L101.197 15.3717L101.196 15.3721L101.31 15.4707ZM91.1787 3.31641L91.2974 3.40812L91.2979 3.40744L91.1787 3.31641ZM95.499 17.8773C93.1467 17.8773 91.2476 17.0462 89.7878 15.3721L89.5617 15.5693C91.0824 17.3132 93.0661 18.1773 95.499 18.1773V17.8773ZM89.787 15.3712C88.3103 13.7065 87.5826 11.6514 87.5826 9.19531H87.2826C87.2826 11.7157 88.0314 13.8443 89.5625 15.5702L89.787 15.3712ZM87.5826 9.19531C87.5826 6.76689 88.3101 4.71145 89.7874 3.03269L89.5622 2.8345C88.0316 4.57371 87.2826 6.70186 87.2826 9.19531H87.5826ZM89.7874 3.03263C91.2477 1.37138 93.1473 0.526953 95.499 0.526953V0.226953C93.0655 0.226953 91.0823 1.10519 89.5621 2.83456L89.7874 3.03263ZM95.499 0.526953C97.8369 0.526953 99.7365 1.37127 101.197 3.03263L101.422 2.83456C99.9021 1.10529 97.9189 0.226953 95.499 0.226953V0.526953ZM101.196 3.03218C102.661 4.71157 103.402 6.76749 103.402 9.19531H103.702C103.702 6.70126 102.939 4.57359 101.423 2.83501L101.196 3.03218ZM103.402 9.19531C103.402 11.6508 102.661 13.7064 101.197 15.3717L101.422 15.5697C102.939 13.8444 103.702 11.7163 103.702 9.19531H103.402ZM101.196 15.3721C99.7366 17.0463 97.8374 17.8773 95.499 17.8773V18.1773C97.9183 18.1773 99.902 17.3131 101.423 15.5693L101.196 15.3721ZM95.499 17.5484C97.3274 17.5484 98.834 16.7573 99.9813 15.1902L99.7393 15.013C98.6445 16.5083 97.2253 17.2484 95.499 17.2484V17.5484ZM99.9813 15.1902C101.126 13.627 101.692 11.6248 101.692 9.19531H101.392C101.392 11.5783 100.837 13.5136 99.7393 15.013L99.9813 15.1902ZM101.692 9.19531C101.692 6.71106 101.098 4.69233 99.8956 3.18195L99.6609 3.36883C100.81 4.81157 101.392 6.75769 101.392 9.19531H101.692ZM99.8956 3.18195C98.696 1.67549 97.2333 0.896875 95.499 0.896875V1.19688C97.128 1.19688 98.509 1.92216 99.6609 3.36883L99.8956 3.18195ZM95.499 0.896875C93.7241 0.896875 92.2328 1.68884 91.0594 3.22537L91.2979 3.40744C92.4214 1.93616 93.8285 1.19688 95.499 1.19688V0.896875ZM91.06 3.22469C89.8724 4.76161 89.2923 6.76554 89.2923 9.20898H89.5923C89.5923 6.81258 90.1608 4.87902 91.2974 3.40812L91.06 3.22469ZM89.2923 9.20898C89.2923 11.6103 89.8307 13.598 90.9469 15.1746L91.1917 15.0012C90.1203 13.4879 89.5923 11.5655 89.5923 9.20898H89.2923ZM90.9469 15.1746C92.0684 16.7587 93.5903 17.5484 95.499 17.5484V17.2484C93.6889 17.2484 92.2577 16.5069 91.1917 15.0012L90.9469 15.1746Z" fill="#073D3D"/>
</svg>
