<svg width="16" height="16" viewBox="0 0 16 16" fill="none" xmlns="http://www.w3.org/2000/svg">
<path d="M7.68 0C6.16104 0 4.67619 0.467502 3.41322 1.34339C2.15025 2.21927 1.16589 3.4642 0.584608 4.92075C0.00332764 6.37729 -0.148762 7.98003 0.147572 9.52629C0.443907 11.0725 1.17536 12.4929 2.24942 13.6077C3.32349 14.7225 4.69193 15.4816 6.18171 15.7892C7.67148 16.0968 9.21567 15.9389 10.619 15.3356C12.0223 14.7323 13.2218 13.7106 14.0657 12.3997C14.9096 11.0889 15.36 9.54774 15.36 7.97119C15.3577 5.85782 14.5479 3.83168 13.1081 2.3373C11.6683 0.842916 9.71617 0.00234428 7.68 0ZM7.68 14.171C6.49859 14.171 5.34371 13.8074 4.3614 13.1261C3.37909 12.4449 2.61347 11.4766 2.16136 10.3438C1.70926 9.21089 1.59096 7.96431 1.82145 6.76166C2.05193 5.55902 2.62083 4.45432 3.45622 3.58726C4.2916 2.7202 5.35595 2.12972 6.51466 1.8905C7.67337 1.65128 8.87441 1.77406 9.96589 2.24331C11.0574 2.71256 11.9903 3.5072 12.6466 4.52676C13.303 5.54631 13.6533 6.74498 13.6533 7.97119C13.6516 9.61494 13.0218 11.1909 11.9019 12.3532C10.7821 13.5155 9.26371 14.1692 7.68 14.171ZM12.5156 7.97119C12.5156 8.20609 12.4256 8.43136 12.2656 8.59746C12.1056 8.76356 11.8885 8.85688 11.6622 8.85688H7.68C7.45368 8.85688 7.23663 8.76356 7.0766 8.59746C6.91657 8.43136 6.82667 8.20609 6.82667 7.97119V3.83798C6.82667 3.60308 6.91657 3.3778 7.0766 3.2117C7.23663 3.0456 7.45368 2.95229 7.68 2.95229C7.90632 2.95229 8.12337 3.0456 8.2834 3.2117C8.44343 3.3778 8.53333 3.60308 8.53333 3.83798V7.0855H11.6622C11.8885 7.0855 12.1056 7.17881 12.2656 7.34491C12.4256 7.51101 12.5156 7.73629 12.5156 7.97119Z" fill="black"/>
</svg>
