<svg width="390" height="47" viewBox="0 0 390 47" fill="none" xmlns="http://www.w3.org/2000/svg">
<path d="M33.9349 18.4673C34.4622 18.4673 34.9471 18.5861 35.3898 18.8235C35.8366 19.0569 36.2249 19.4111 36.555 19.886C36.889 20.3569 37.1466 20.9525 37.3277 21.6729C37.5128 22.3933 37.6054 23.2405 37.6054 24.2145C37.6054 25.0476 37.547 25.8746 37.4303 26.6957C37.3136 27.5167 37.1144 28.2653 36.8327 28.9414C36.5509 29.6175 36.1646 30.1589 35.6736 30.5653C35.1826 30.9678 34.5628 31.169 33.8142 31.169C33.2025 31.169 32.6692 31.0302 32.2144 30.7525C31.7596 30.4708 31.3994 30.0844 31.1338 29.5934C30.8682 29.0984 30.7152 28.5289 30.675 27.8849H31.0614C31.1217 28.7301 31.3934 29.4244 31.8763 29.9677C32.3593 30.511 33.0052 30.7827 33.8142 30.7827C34.9371 30.7827 35.7842 30.2031 36.3557 29.044C36.9313 27.8849 37.219 26.2187 37.219 24.0455H37.1707C37.0419 24.456 36.8186 24.8222 36.5006 25.1442C36.1827 25.4621 35.8064 25.7137 35.3717 25.8988C34.9371 26.0799 34.4823 26.1705 34.0074 26.1705C33.3554 26.1705 32.7597 26.0014 32.2204 25.6634C31.6852 25.3253 31.2565 24.8645 30.9346 24.2809C30.6166 23.6973 30.4577 23.0393 30.4577 22.3068C30.4577 21.6226 30.6025 20.9888 30.8923 20.4052C31.1861 19.8216 31.5926 19.3527 32.1118 18.9986C32.635 18.6444 33.2427 18.4673 33.9349 18.4673ZM33.9349 18.8537C33.3393 18.8537 32.808 19.0086 32.3412 19.3185C31.8783 19.6284 31.5121 20.045 31.2425 20.5682C30.9768 21.0914 30.844 21.6709 30.844 22.3068C30.844 22.9588 30.9849 23.5484 31.2666 24.0756C31.5524 24.5988 31.9347 25.0154 32.4136 25.3253C32.8966 25.6312 33.4359 25.7841 34.0315 25.7841C34.5024 25.7841 34.9391 25.6875 35.3415 25.4943C35.744 25.2971 36.0861 25.0275 36.3678 24.6854C36.6536 24.3433 36.8568 23.9549 36.9775 23.5202C37.1023 23.0816 37.1184 22.6207 37.0258 22.1378C36.889 21.4134 36.6737 20.8076 36.3799 20.3207C36.0901 19.8337 35.7359 19.4674 35.3174 19.2219C34.9029 18.9764 34.442 18.8537 33.9349 18.8537ZM40.7169 28.5973C40.5962 28.5973 40.4935 28.555 40.409 28.4705C40.3245 28.386 40.2823 28.2834 40.2823 28.1626C40.2823 28.0419 40.3245 27.9393 40.409 27.8548C40.4935 27.7702 40.5962 27.728 40.7169 27.728C40.8377 27.728 40.9403 27.7702 41.0248 27.8548C41.1093 27.9393 41.1516 28.0419 41.1516 28.1626C41.1516 28.2431 41.1315 28.3176 41.0912 28.386C41.055 28.4504 41.0027 28.5027 40.9342 28.543C40.8699 28.5792 40.7974 28.5973 40.7169 28.5973ZM40.7169 22.2947C40.5962 22.2947 40.4935 22.2525 40.409 22.168C40.3245 22.0835 40.2823 21.9808 40.2823 21.8601C40.2823 21.7393 40.3245 21.6367 40.409 21.5522C40.4935 21.4677 40.5962 21.4254 40.7169 21.4254C40.8377 21.4254 40.9403 21.4677 41.0248 21.5522C41.1093 21.6367 41.1516 21.7393 41.1516 21.8601C41.1516 21.9406 41.1315 22.015 41.0912 22.0835C41.055 22.1478 41.0027 22.2002 40.9342 22.2404C40.8699 22.2766 40.7974 22.2947 40.7169 22.2947ZM43.7153 28.1023V27.8125L49.39 18.6364H49.6314V19.4332H49.3417L44.2707 27.6676V27.7159H51.3218V28.1023H43.7153ZM49.39 31V27.9815V27.8608V18.6364H49.7763V31H49.39ZM56.3184 18.6364V31H55.932V19.0469H55.8595L53.2033 20.8097V20.3509L55.7871 18.6364H56.3184Z" fill="black"/>
<path opacity="0.35" d="M346.5 22C346.5 20.067 348.067 18.5 350 18.5H367C368.933 18.5 370.5 20.067 370.5 22V27C370.5 28.933 368.933 30.5 367 30.5H350C348.067 30.5 346.5 28.933 346.5 27V22Z" stroke="black"/>
<path opacity="0.4" d="M372 23V27.2203C372.849 26.8629 373.401 26.0314 373.401 25.1102C373.401 24.1889 372.849 23.3574 372 23Z" fill="black"/>
<path d="M348 22C348 20.8954 348.895 20 350 20H367C368.105 20 369 20.8954 369 22V27C369 28.1046 368.105 29 367 29H350C348.895 29 348 28.1046 348 27V22Z" fill="black"/>
<path fill-rule="evenodd" clip-rule="evenodd" d="M331.5 21.5875C333.967 21.5876 336.339 22.5551 338.127 24.2898C338.261 24.4237 338.477 24.4221 338.609 24.286L339.896 22.9605C339.963 22.8915 340.001 22.798 340 22.7008C339.999 22.6035 339.961 22.5105 339.893 22.4423C335.201 17.8526 327.799 17.8526 323.107 22.4423C323.039 22.5105 323.001 22.6034 323 22.7007C322.999 22.7979 323.037 22.8914 323.104 22.9605L324.391 24.286C324.523 24.4223 324.739 24.424 324.873 24.2898C326.661 22.5549 329.034 21.5875 331.5 21.5875ZM331.536 25.5894C332.891 25.5893 334.198 26.1035 335.203 27.032C335.338 27.1638 335.552 27.1609 335.685 27.0255L336.97 25.7C337.038 25.6304 337.075 25.5361 337.074 25.4381C337.073 25.3401 337.034 25.2466 336.965 25.1784C333.906 22.2739 329.169 22.2739 326.109 25.1784C326.04 25.2466 326.001 25.3401 326 25.4382C325.999 25.5362 326.037 25.6305 326.105 25.7L327.39 27.0255C327.522 27.1609 327.736 27.1638 327.872 27.032C328.876 26.1041 330.182 25.5899 331.536 25.5894ZM334.15 28.1767C334.152 28.275 334.114 28.3698 334.045 28.4386L331.822 30.7289C331.756 30.7962 331.668 30.834 331.575 30.834C331.482 30.834 331.393 30.7962 331.328 30.7289L329.105 28.4386C329.036 28.3697 328.998 28.2749 329 28.1766C329.002 28.0783 329.044 27.9853 329.115 27.9194C330.535 26.6935 332.615 26.6935 334.035 27.9194C334.106 27.9853 334.148 28.0784 334.15 28.1767Z" fill="black"/>
<path d="M309 22C309 21.4477 309.448 21 310 21H311C311.552 21 312 21.4477 312 22V30C312 30.5523 311.552 31 311 31H310C309.448 31 309 30.5523 309 30V22Z" fill="black"/>
<path d="M314 20C314 19.4477 314.448 19 315 19H316C316.552 19 317 19.4477 317 20V30C317 30.5523 316.552 31 316 31H315C314.448 31 314 30.5523 314 30V20Z" fill="black"/>
<path d="M304 25.5C304 24.9477 304.448 24.5 305 24.5H306C306.552 24.5 307 24.9477 307 25.5V30C307 30.5523 306.552 31 306 31H305C304.448 31 304 30.5523 304 30V25.5Z" fill="black"/>
<path d="M299 28C299 27.4477 299.448 27 300 27H301C301.552 27 302 27.4477 302 28V30C302 30.5523 301.552 31 301 31H300C299.448 31 299 30.5523 299 30V28Z" fill="black"/>
</svg>
